<svg width="58" height="60" viewBox="0 0 58 60" fill="none" xmlns="http://www.w3.org/2000/svg">
<path d="M22.6062 59.9986H17.9762C16.2739 59.9986 14.8208 58.7779 14.5339 57.1089L13.294 49.8979C12.9294 47.7739 14.5728 45.8354 16.7363 45.8354H22.6062C24.5351 45.8354 26.0995 47.3924 26.0995 49.3122V56.5232C26.0995 58.443 24.5351 59.9999 22.6062 59.9999V59.9986Z" fill="#FFD2B3"/>
<path d="M32.0435 59.9986H36.6735C38.3759 59.9986 39.829 58.7779 40.1158 57.1089L41.3558 49.8979C41.7204 47.7739 40.0769 45.8354 37.9134 45.8354H32.0435C30.1146 45.8354 28.5503 47.3924 28.5503 49.3122V56.5232C28.5503 58.443 30.1146 59.9999 32.0435 59.9999V59.9986Z" fill="#FFD2B3"/>
<path d="M27.5648 58.2217C42.2742 58.2217 54.1985 47.1409 54.1985 33.4722C54.1985 19.8034 42.2742 8.72266 27.5648 8.72266C12.8555 8.72266 0.931152 19.8034 0.931152 33.4722C0.931152 47.1409 12.8555 58.2217 27.5648 58.2217Z" fill="#FF7000"/>
<path d="M44.3096 31.0855C44.3096 39.105 36.7293 33.6964 27.3782 33.6964C18.0271 33.6964 10.4468 39.105 10.4468 31.0855C10.4468 23.066 18.0271 16.5635 27.3782 16.5635C36.7293 16.5635 44.3096 23.0647 44.3096 31.0855Z" fill="#FFEEE3"/>
<path d="M17.8049 48.9657H17.0516C14.8385 48.9657 13.0449 47.1806 13.0449 44.978C13.0449 42.7753 14.8385 40.9902 17.0516 40.9902H17.8049C20.0582 40.9902 21.8692 42.8393 21.8102 45.0807C21.7539 47.2433 19.9778 48.967 17.8049 48.967V48.9657Z" fill="#FFEEE3"/>
<path d="M24.0499 3.42476C27.3582 6.90151 26.9936 12.5916 26.9936 12.5916C26.9936 12.5916 21.2658 12.6436 17.9575 9.16687C14.6492 5.69012 15.0138 4.39432e-05 15.0138 4.39432e-05C15.0138 4.39432e-05 20.7417 -0.0519873 24.0499 3.42476Z" fill="#31AC00"/>
<path d="M30.2164 3.5915C26.7232 6.88414 26.7754 12.5849 26.7754 12.5849C26.7754 12.5849 32.4925 12.9478 35.9858 9.65513C39.479 6.36249 39.4267 0.66174 39.4267 0.66174C39.4267 0.66174 33.7097 0.298856 30.2164 3.5915Z" fill="#31AC00"/>
<path d="M12.8538 16.2605L12.938 16.3826C13.213 16.7818 13.7612 16.8835 14.1624 16.6098L15.6139 15.6191C16.015 15.3453 16.1172 14.7997 15.8421 14.4005L15.758 14.2784C15.4829 13.8791 14.9347 13.7774 14.5336 14.0512L13.0821 15.0419C12.6809 15.3156 12.5787 15.8612 12.8538 16.2605Z" fill="#E85700"/>
<path d="M9.83653 18.5028L9.90761 18.5914C10.1404 18.8817 10.5655 18.9291 10.8571 18.6974L11.912 17.8593C12.2036 17.6276 12.2513 17.2045 12.0185 16.9143L11.9474 16.8257C11.7147 16.5354 11.2896 16.488 10.998 16.7197L9.94303 17.5578C9.65143 17.7895 9.60374 18.2126 9.83653 18.5028Z" fill="#E85700"/>
<path d="M42.2316 50.1723L42.1399 50.0557C41.8399 49.6746 41.2863 49.6078 40.9034 49.9063L39.518 50.9867C39.1352 51.2853 39.068 51.8362 39.368 52.2173L39.4598 52.3339C39.7597 52.7149 40.3133 52.7818 40.6962 52.4832L42.0816 51.4028C42.4644 51.1042 42.5316 50.5533 42.2316 50.1723Z" fill="#E85700"/>
<path d="M38.3062 52.7977L38.2536 52.6972C38.0812 52.3678 37.6732 52.2399 37.3423 52.4115L36.1451 53.0323C35.8142 53.2039 35.6858 53.61 35.8582 53.9393L35.9108 54.0399C36.0832 54.3692 36.4912 54.4971 36.8221 54.3255L38.0192 53.7047C38.3501 53.5331 38.4786 53.1271 38.3062 52.7977Z" fill="#E85700"/>
<path d="M56.3057 20.5616L57.0604 14.462C57.1207 13.9737 56.8633 13.4854 56.4076 13.2973C55.7709 13.0345 55.0832 13.3987 54.921 14.0284L53.7776 18.4657C53.7226 18.6818 53.5068 18.8166 53.287 18.7739C53.0671 18.7312 52.921 18.5284 52.9492 18.3096L53.5149 13.7402C53.5846 13.1732 53.2025 12.6489 52.6395 12.5395C52.0712 12.4288 51.5149 12.7783 51.3715 13.3373L50.228 17.7746C50.1731 17.9908 49.9573 18.1255 49.7374 18.0828L49.7106 18.0775C49.4935 18.0348 49.3447 17.832 49.3728 17.6132L49.9345 13.0745C49.9948 12.5862 49.7374 12.0979 49.2817 11.9098C48.6449 11.647 47.9573 12.0112 47.7951 12.6409L46.2549 18.6178C46.212 18.7832 46.0874 19.477 46.0471 19.6824C45.8045 20.9165 46.6128 22.1119 47.8527 22.3534L48.8715 22.5522L45.0552 38.4697C44.8099 39.4916 45.4694 40.5096 46.5042 40.711L47.8005 40.9632C48.834 41.1647 49.8272 40.4709 49.9908 39.4356L52.5323 23.2646L53.4586 23.4447C54.6985 23.6862 55.8995 22.8817 56.1422 21.6476C56.1877 21.4155 56.2883 20.7071 56.307 20.5603L56.3057 20.5616Z" fill="#383334"/>
<path d="M47.1047 44.308H46.3514C44.1383 44.308 42.3447 42.5229 42.3447 40.3202C42.3447 38.1176 44.1383 36.3325 46.3514 36.3325H47.1047C49.358 36.3325 51.169 38.1816 51.11 40.423C51.0537 42.5856 49.2776 44.3093 47.1047 44.3093V44.308Z" fill="#FFEEE3"/>
<path d="M22.0019 26.8551C22.7985 26.8551 23.4443 26.1741 23.4443 25.3341C23.4443 24.4942 22.7985 23.8132 22.0019 23.8132C21.2053 23.8132 20.5596 24.4942 20.5596 25.3341C20.5596 26.1741 21.2053 26.8551 22.0019 26.8551Z" fill="#383334"/>
<path d="M32.975 26.8551C33.7716 26.8551 34.4174 26.1741 34.4174 25.3341C34.4174 24.4942 33.7716 23.8132 32.975 23.8132C32.1785 23.8132 31.5327 24.4942 31.5327 25.3341C31.5327 26.1741 32.1785 26.8551 32.975 26.8551Z" fill="#383334"/>
<path d="M36.1918 28.0502C36.3124 28.305 36.6381 28.4224 36.9183 28.313L38.87 27.5446C39.1502 27.4339 39.2789 27.1377 39.1582 26.8829C39.0376 26.628 38.7118 26.5106 38.4317 26.62L36.48 27.3885C36.1998 27.4992 36.0711 27.7954 36.1918 28.0502Z" fill="#383334"/>
<path d="M36.2122 29.1389C36.117 29.4044 36.2631 29.7166 36.5393 29.8354L38.4642 30.6652C38.7403 30.7839 39.0419 30.6652 39.1384 30.3997C39.2336 30.1342 39.0875 29.822 38.8113 29.7033L36.8864 28.8734C36.6103 28.7547 36.3087 28.8735 36.2122 29.1389Z" fill="#383334"/>
<path d="M18.7124 28.0502C18.5918 28.305 18.266 28.4224 17.9859 28.313L16.0342 27.5446C15.754 27.4339 15.6253 27.1377 15.746 26.8829C15.8666 26.628 16.1923 26.5106 16.4725 26.62L18.4242 27.3885C18.7044 27.4992 18.8331 27.7954 18.7124 28.0502Z" fill="#383334"/>
<path d="M18.6926 29.1389C18.7878 29.4044 18.6417 29.7166 18.3655 29.8354L16.4406 30.6652C16.1645 30.7839 15.8629 30.6652 15.7664 30.3997C15.6712 30.1342 15.8173 29.822 16.0935 29.7033L18.0184 28.8734C18.2945 28.7547 18.5961 28.8735 18.6926 29.1389Z" fill="#383334"/>
<path d="M25.9847 27.9142C27.0665 28.4639 28.2716 28.4799 29.352 27.9142C29.8654 27.6447 29.4109 26.8696 28.8962 27.1391C28.1107 27.5513 27.226 27.5393 26.4391 27.1391C25.9231 26.8776 25.466 27.6514 25.9834 27.9142H25.9847Z" fill="#383334"/>
<path d="M25.6651 28.7482C26.4131 27.8917 26.4345 26.8497 25.6651 25.9946C25.2911 25.5783 24.6772 26.1933 25.0498 26.6069C25.4909 27.0965 25.4788 27.6435 25.0498 28.1358C24.6839 28.5548 25.2965 29.1698 25.6651 28.7482Z" fill="#383334"/>
</svg>
