<svg width="60" height="60" viewBox="0 0 60 60" fill="none" xmlns="http://www.w3.org/2000/svg">
<path d="M31.1329 59.4504C39.7432 59.4504 46.7233 58.0369 46.7233 56.2932C46.7233 54.5495 39.7432 53.136 31.1329 53.136C22.5225 53.136 15.5425 54.5495 15.5425 56.2932C15.5425 58.0369 22.5225 59.4504 31.1329 59.4504Z" fill="#DBDBDB"/>
<path d="M25.5659 57.9841H23.4515C21.2939 57.9841 19.4507 56.4301 19.0871 54.3037L18.3407 49.9513C17.8787 47.2453 19.962 44.7781 22.7052 44.7781H25.5659C28.0139 44.7781 29.9927 46.7629 29.9927 49.2049V53.5573C29.9927 56.0053 28.0079 57.9841 25.5659 57.9841Z" fill="#FFD2B3"/>
<path d="M36.7007 57.9841H38.8151C40.9727 57.9841 42.8159 56.4301 43.1795 54.3037L43.9259 49.9513C44.3879 47.2453 42.3047 44.7781 39.5615 44.7781H36.7007C34.2527 44.7781 32.2739 46.7629 32.2739 49.2049V53.5573C32.2739 56.0053 34.2587 57.9841 36.7007 57.9841Z" fill="#FFD2B3"/>
<path d="M31.1327 56.3256C44.7898 56.3256 55.8611 45.9882 55.8611 33.2364C55.8611 20.4846 44.7898 10.1472 31.1327 10.1472C17.4756 10.1472 6.4043 20.4846 6.4043 33.2364C6.4043 45.9882 17.4756 56.3256 31.1327 56.3256Z" fill="#FF7000"/>
<path d="M46.854 31.0117C46.854 38.4901 39.8136 33.4465 31.1328 33.4465C22.452 33.4465 15.4116 38.4901 15.4116 31.0117C15.4116 23.5333 22.452 17.4673 31.1328 17.4673C39.8136 17.4673 46.854 23.5333 46.854 31.0117Z" fill="#FFEEE3"/>
<path d="M28.195 5.20911C31.2658 8.45151 30.9262 13.7603 30.9262 13.7603C30.9262 13.7603 25.6054 13.8095 22.5358 10.5671C19.465 7.32471 19.8046 2.01591 19.8046 2.01591C19.8046 2.01591 25.1254 1.96671 28.195 5.20911Z" fill="#31AC00"/>
<path d="M33.9227 5.36392C30.6803 8.43472 30.7295 13.7543 30.7295 13.7543C30.7295 13.7543 36.0383 14.0939 39.2807 11.0231C42.5231 7.95232 42.4739 2.63272 42.4739 2.63272C42.4739 2.63272 37.1651 2.29312 33.9227 5.36392Z" fill="#31AC00"/>
<path d="M19.2049 15.1136L17.862 16.0345C17.4887 16.2905 17.3936 16.8007 17.6496 17.174L17.7269 17.2868C17.9829 17.6601 18.4931 17.7552 18.8664 17.4992L20.2093 16.5783C20.5827 16.3223 20.6778 15.8122 20.4218 15.4388L20.3444 15.326C20.0884 14.9527 19.5783 14.8576 19.2049 15.1136Z" fill="#E85700"/>
<path d="M15.9398 17.623L14.9616 18.4038C14.6902 18.6205 14.6459 19.0162 14.8625 19.2876L14.9276 19.3692C15.1443 19.6406 15.54 19.6849 15.8114 19.4683L16.7895 18.6874C17.0609 18.4708 17.1053 18.0751 16.8886 17.8037L16.8235 17.7221C16.6068 17.4507 16.2112 17.4063 15.9398 17.623Z" fill="#E85700"/>
<path d="M44.28 48.8561L42.9982 49.8605C42.6419 50.1396 42.5793 50.6548 42.8585 51.0111L42.9429 51.1188C43.2221 51.4751 43.7372 51.5376 44.0935 51.2584L45.3753 50.2541C45.7316 49.9749 45.7942 49.4598 45.515 49.1035L45.4306 48.9958C45.1514 48.6395 44.6363 48.577 44.28 48.8561Z" fill="#E85700"/>
<path d="M40.9796 51.1966L39.8697 51.7749C39.5617 51.9354 39.4421 52.3151 39.6026 52.6231L39.6508 52.7157C39.8113 53.0236 40.191 53.1432 40.499 52.9828L41.609 52.4045C41.9169 52.244 42.0365 51.8643 41.8761 51.5563L41.8278 51.4637C41.6674 51.1557 41.2876 51.0361 40.9796 51.1966Z" fill="#E85700"/>
<path d="M2.59433 28.422L0.29393 23.1684C0.10913 22.7496 0.20753 22.2432 0.56513 21.954C1.06433 21.5472 1.77353 21.6948 2.08193 22.2132L4.28273 25.8756C4.38713 26.0544 4.61513 26.1156 4.80113 26.0232C4.98713 25.9308 5.06033 25.7088 4.97993 25.518L3.26033 21.5844C3.04433 21.0972 3.24833 20.5236 3.71633 20.2776C4.18433 20.0316 4.78313 20.1912 5.06033 20.6532L7.26113 24.3156C7.36553 24.4944 7.59353 24.5556 7.77953 24.4632L7.80473 24.4512C7.98953 24.3528 8.06393 24.1368 7.98353 23.946L6.26993 20.0376C6.08513 19.6188 6.18353 19.1124 6.54113 18.8232C7.04033 18.4164 7.74953 18.564 8.05793 19.0824L11.0231 24.0144C11.1035 24.15 11.3987 24.7356 11.4911 24.9084C12.0335 25.944 11.6327 27.2328 10.5971 27.7752L9.74633 28.2252L17.3915 41.4372C17.8847 42.288 17.5703 43.3728 16.7015 43.8228L15.6167 44.3904C14.7539 44.8464 13.6811 44.4888 13.2611 43.608L6.68273 29.8284L5.90633 30.2352C4.87073 30.7776 3.58193 30.3768 3.03953 29.3412C2.93513 29.1444 2.65673 28.5396 2.60153 28.416L2.59553 28.422H2.59433Z" fill="#474243"/>
<path d="M17.1192 47.2007L17.7912 47.0039C19.758 46.4183 20.88 44.3471 20.2944 42.3743C19.7088 40.4075 17.6376 39.2855 15.6648 39.8711L14.9928 40.0679C12.9888 40.6655 11.8728 42.7991 12.5208 44.7899C13.1496 46.7075 15.1908 47.7743 17.1204 47.2007H17.1192Z" fill="#FFEEE3"/>
<path d="M58.8515 21.2952L59.7827 15.648C59.8571 15.198 59.6351 14.7288 59.2211 14.538C58.6415 14.2668 57.9875 14.5812 57.8159 15.1608L56.5823 19.248C56.5211 19.4448 56.3171 19.5624 56.1143 19.5132C55.9115 19.464 55.7879 19.2732 55.8179 19.0692L56.5151 14.8404C56.6015 14.316 56.2679 13.8108 55.7507 13.6872C55.2335 13.5636 54.6959 13.866 54.5423 14.3772L53.3087 18.4644C53.2475 18.6612 53.0435 18.7788 52.8407 18.7296H52.8155C52.6187 18.6744 52.4891 18.4824 52.5191 18.2796L53.2163 14.0748C53.2907 13.6248 53.0687 13.1556 52.6547 12.9648C52.0751 12.6936 51.4211 13.008 51.2495 13.5876L49.5911 19.0932C49.5479 19.2468 49.4003 19.8888 49.3571 20.0736C49.0859 21.2136 49.7891 22.3548 50.9291 22.626L51.8663 22.848L47.7167 37.5156C47.4515 38.4588 48.0251 39.4332 48.9743 39.6552L50.1647 39.9384C51.1139 40.1664 52.0631 39.5556 52.2551 38.6004L55.2323 23.6496L56.0831 23.8536C57.2231 24.1248 58.3703 23.4216 58.6415 22.2876C58.6907 22.0716 58.8143 21.4188 58.8383 21.2832L58.8503 21.2952H58.8515Z" fill="#474243"/>
<path d="M49.3944 43.0823L48.6972 43.0511C46.644 42.9647 45.0468 41.2319 45.1332 39.1799C45.2196 37.1267 46.9524 35.5295 49.0044 35.6159L49.7016 35.6471C51.792 35.7335 53.4012 37.5275 53.2584 39.6119C53.1228 41.6279 51.4092 43.1627 49.3932 43.0763V43.0823H49.3944Z" fill="#FFEEE3"/>
<path d="M26.0709 27.066C26.8099 27.066 27.4089 26.431 27.4089 25.6476C27.4089 24.8643 26.8099 24.2292 26.0709 24.2292C25.332 24.2292 24.7329 24.8643 24.7329 25.6476C24.7329 26.431 25.332 27.066 26.0709 27.066Z" fill="#383334"/>
<path d="M36.2565 27.066C36.9954 27.066 37.5945 26.431 37.5945 25.6476C37.5945 24.8643 36.9954 24.2292 36.2565 24.2292C35.5175 24.2292 34.9185 24.8643 34.9185 25.6476C34.9185 26.431 35.5175 27.066 36.2565 27.066Z" fill="#383334"/>
<path d="M39.2468 28.1809C39.3572 28.4209 39.6596 28.5265 39.9188 28.4281L41.7308 27.7129C41.99 27.6085 42.1136 27.3301 41.996 27.0961C41.8856 26.8561 41.5832 26.7505 41.324 26.8489L39.512 27.5641C39.2528 27.6685 39.1292 27.9469 39.2468 28.1809Z" fill="#686566"/>
<path d="M39.2648 29.1985C39.1784 29.4457 39.314 29.7349 39.5672 29.8453L41.3552 30.6217C41.6144 30.7321 41.8916 30.6217 41.984 30.3745C42.0704 30.1273 41.9348 29.8381 41.6816 29.7277L39.8936 28.9513C39.6344 28.8409 39.3572 28.9513 39.2648 29.1985Z" fill="#686566"/>
<path d="M23.0195 28.1809C22.9091 28.4209 22.6067 28.5265 22.3475 28.4281L20.5355 27.7129C20.2763 27.6085 20.1527 27.3301 20.2703 27.0961C20.3807 26.8561 20.6831 26.7505 20.9423 26.8489L22.7543 27.5641C23.0135 27.6685 23.1371 27.9469 23.0195 28.1809Z" fill="#686566"/>
<path d="M23.0016 29.1985C23.088 29.4457 22.9524 29.7349 22.6992 29.8453L20.9112 30.6217C20.652 30.7321 20.3748 30.6217 20.2824 30.3745C20.196 30.1273 20.3316 29.8381 20.5848 29.7277L22.3728 28.9513C22.632 28.8409 22.9092 28.9513 23.0016 29.1985Z" fill="#686566"/>
<path d="M29.7707 28.0526C30.2519 28.2998 30.7631 28.4534 31.3055 28.4594C31.8479 28.4654 32.4035 28.3118 32.8967 28.0526C33.0935 27.9482 33.1559 27.6698 33.0443 27.479C32.9267 27.275 32.6747 27.2198 32.4707 27.3314C32.2919 27.4238 32.1815 27.473 31.9715 27.5354C31.8539 27.5666 31.7375 27.5966 31.6199 27.6098C31.6631 27.6098 31.6199 27.6098 31.5947 27.6098C31.5635 27.6098 31.5335 27.6098 31.5023 27.6158H31.2983C30.9155 27.6158 30.5279 27.5054 30.1823 27.3266C29.9855 27.2282 29.7203 27.2714 29.6087 27.4742C29.5103 27.665 29.5535 27.9422 29.7563 28.0478L29.7683 28.0538L29.7707 28.0526Z" fill="#383334"/>
<path d="M29.4742 28.8288C29.7886 28.4712 30.0166 28.0644 30.0286 27.5772C30.0406 27.09 29.8006 26.628 29.4742 26.2644C29.3326 26.1036 29.0422 26.1108 28.9006 26.2644C28.747 26.4312 28.753 26.6652 28.9006 26.838C28.9126 26.856 28.9318 26.8692 28.9438 26.8872C28.9618 26.9124 28.981 26.9304 28.999 26.9556C28.9822 26.9348 28.9822 26.9348 28.999 26.9556C29.0542 27.036 29.1034 27.1224 29.1466 27.2088C29.1718 27.252 29.1586 27.2208 29.1466 27.1968C29.1586 27.2148 29.1646 27.246 29.1718 27.2712C29.1838 27.3144 29.197 27.3576 29.209 27.4008C29.209 27.4128 29.209 27.456 29.221 27.456C29.203 27.444 29.215 27.3696 29.221 27.456V27.5856C29.221 27.6228 29.209 27.666 29.215 27.7032C29.203 27.6228 29.215 27.66 29.215 27.7032C29.215 27.7212 29.209 27.7404 29.203 27.7584C29.191 27.8016 29.1778 27.8448 29.1598 27.888C29.1286 27.9804 29.185 27.8388 29.1598 27.888C29.1478 27.906 29.1418 27.9252 29.1346 27.9432C29.1094 27.9864 29.0914 28.0296 29.0602 28.0668C29.0482 28.092 29.029 28.116 29.011 28.1352C29.011 28.1412 28.9618 28.1964 28.993 28.1604C29.0182 28.1292 28.9618 28.1976 28.9498 28.2096C28.9378 28.2276 28.9186 28.2408 28.9066 28.2588C28.771 28.4196 28.7398 28.6776 28.9066 28.8324C29.0602 28.974 29.3326 29.0052 29.4802 28.8324H29.4742V28.8288Z" fill="#383334"/>
</svg>
