<svg width="310" height="31" viewBox="0 0 310 31" fill="none" xmlns="http://www.w3.org/2000/svg">
<path d="M308.36 3.82001C309.205 3.82001 309.89 3.135 309.89 2.29001C309.89 1.44501 309.205 0.76001 308.36 0.76001C307.515 0.76001 306.83 1.44501 306.83 2.29001C306.83 3.135 307.515 3.82001 308.36 3.82001Z" fill="#CAEDFF"/>
<path d="M303.95 5.71994C303.61 4.65994 302.63 3.89993 301.46 3.89993C301.15 3.89993 300.85 3.95994 300.57 4.05994C300.04 3.09994 299.02 2.44995 297.84 2.44995C296.12 2.44995 294.72 3.84995 294.72 5.56995C294.72 5.61995 294.72 5.66995 294.72 5.72995H294.68C293.44 5.72995 292.43 6.73995 292.43 7.97995V8.12994C292.43 9.36994 293.44 10.3799 294.68 10.3799H303.81C305.05 10.3799 306.06 9.36994 306.06 8.12994V7.97995C306.06 6.77995 305.13 5.80995 303.95 5.72995V5.71994Z" fill="#D7F2FF"/>
<path d="M270.02 23.45C270.02 21.38 268.4 19.6899 266.36 19.5699C265.66 18.2099 264.25 17.2699 262.62 17.2699C262.08 17.2699 261.57 17.3699 261.1 17.5599C260.25 15.9899 258.6 14.9299 256.69 14.9299C254.05 14.9299 251.88 16.9799 251.69 19.5699C249.69 19.7299 248.11 21.3999 248.11 23.4399C248.11 25.5899 249.85 27.3299 252 27.3299H252.15C252.85 28.6799 254.26 29.6099 255.89 29.6099C256.84 29.6099 257.72 29.2899 258.43 28.7499C259.32 29.5699 260.52 30.0799 261.83 30.0799C263.79 30.0799 265.48 28.9599 266.31 27.3199C268.39 27.2399 270.05 25.5299 270.05 23.4399L270.02 23.45Z" fill="#EEF9FF"/>
<path d="M1.53 3.82001C2.37499 3.82001 3.06 3.135 3.06 2.29001C3.06 1.44501 2.37499 0.76001 1.53 0.76001C0.685003 0.76001 0 1.44501 0 2.29001C0 3.135 0.685003 3.82001 1.53 3.82001Z" fill="#CAEDFF"/>
<path d="M5.92982 5.71994C6.26982 4.65994 7.24982 3.89993 8.41982 3.89993C8.72982 3.89993 9.02982 3.95994 9.30982 4.05994C9.83982 3.09994 10.8598 2.44995 12.0398 2.44995C13.7598 2.44995 15.1598 3.84995 15.1598 5.56995C15.1598 5.61995 15.1598 5.66995 15.1598 5.72995H15.1998C16.4398 5.72995 17.4498 6.73995 17.4498 7.97995V8.12994C17.4498 9.36994 16.4398 10.3799 15.1998 10.3799H6.06982C4.82982 10.3799 3.81982 9.36994 3.81982 8.12994V7.97995C3.81982 6.77995 4.74982 5.80995 5.92982 5.72995V5.71994Z" fill="#D7F2FF"/>
<path d="M39.8598 23.45C39.8598 21.38 41.4798 19.6899 43.5198 19.5699C44.2198 18.2099 45.6298 17.2699 47.2598 17.2699C47.7998 17.2699 48.3098 17.3699 48.7798 17.5599C49.6298 15.9899 51.2798 14.9299 53.1898 14.9299C55.8298 14.9299 57.9998 16.9799 58.1898 19.5699C60.1898 19.7299 61.7698 21.3999 61.7698 23.4399C61.7698 25.4799 60.0298 27.3299 57.8798 27.3299H57.7298C57.0298 28.6799 55.6198 29.6099 53.9898 29.6099C53.0398 29.6099 52.1598 29.2899 51.4498 28.7499C50.5598 29.5699 49.3598 30.0799 48.0498 30.0799C46.0898 30.0799 44.3998 28.9599 43.5698 27.3199C41.4898 27.2399 39.8298 25.5299 39.8298 23.4399L39.8598 23.45Z" fill="#EEF9FF"/>
</svg>
