<svg width="61" height="46" viewBox="0 0 61 46" fill="none" xmlns="http://www.w3.org/2000/svg">
<path d="M35.2495 46C47.3998 46 57.2495 43.0898 57.2495 39.5C57.2495 35.9101 47.3998 33 35.2495 33C23.0992 33 13.2495 35.9101 13.2495 39.5C13.2495 43.0898 23.0992 46 35.2495 46Z" fill="#CDCED6"/>
<path d="M46.2441 29.4228C46.2375 29.2162 46.2222 29.0117 46.1993 28.8083C45.4541 26.6725 38.5976 25 30.2495 25C21.9014 25 15.0449 26.6725 14.2997 28.8083C14.2768 29.0117 14.2626 29.2162 14.255 29.4228C14.2517 29.5157 14.2495 29.6075 14.2495 29.7004C14.2495 35.9407 21.4126 41 30.2495 41C39.0864 41 46.2495 35.9407 46.2495 29.7004C46.2495 29.6075 46.2473 29.5146 46.2441 29.4228Z" fill="#8C8F9F"/>
<path d="M56.2419 12.504C56.2299 12.0139 56.2058 11.5271 56.1676 11.0447C54.933 5.97304 43.5785 2 29.7506 2C15.9227 2 4.56708 5.97304 3.33254 11.0436C3.2954 11.5271 3.27027 12.0128 3.25825 12.5029C3.25279 12.722 3.24951 12.9422 3.24951 13.1635C3.24951 27.9846 15.1142 40 29.7495 40C44.3848 40 56.2495 27.9846 56.2495 13.1635C56.2495 12.9433 56.2462 12.7231 56.2408 12.5029L56.2419 12.504Z" fill="#E8E8EE"/>
<path d="M29.7501 19C41.249 19 50.6425 16.0693 51.2495 12.3811C51.2405 12.0368 51.2201 11.6948 51.1895 11.3551C50.1872 7.79183 40.9715 5 29.7501 5C18.5286 5 9.31186 7.79183 8.30954 11.3551C8.27896 11.6948 8.25857 12.0368 8.24951 12.3811C8.8577 16.0704 18.25 19 29.7489 19H29.7501Z" fill="#CDCED6"/>
<path d="M29.5 16C23.964 16 18.9013 16.4744 15 17.261C18.8989 18.3453 23.9593 19 29.4918 19C29.4941 19 29.4977 19 29.5 19C29.5023 19 29.5059 19 29.5082 19C35.0395 19 40.1011 18.3441 44 17.261C40.0987 16.4756 35.036 16 29.5 16Z" fill="#BFC1CC"/>
</svg>
