<svg width="14" height="8" viewBox="0 0 14 8" fill="none" xmlns="http://www.w3.org/2000/svg">
<path d="M3.195 7.05639C3.6855 6.8263 3.91266 6.20608 3.69957 5.67388L2.22405 1.9585C2.01298 1.4243 1.44208 1.18021 0.951578 1.4103C0.46108 1.64038 0.233921 2.26061 0.447006 2.79281L1.92251 6.50819C2.13359 7.04239 2.7045 7.28648 3.195 7.05639Z" fill="#258300"/>
<path d="M6.9038 0.880161C6.36103 0.898167 5.90672 1.37635 5.88863 1.95057L5.76398 5.94404C5.74589 6.51825 6.17207 6.96843 6.71282 6.95042C7.25559 6.93241 7.7099 6.45423 7.72799 5.88002L7.85262 1.88654C7.87072 1.31233 7.44455 0.862154 6.9038 0.880161Z" fill="#258300"/>
<path d="M10.3315 7.01853C10.8421 7.2006 11.4411 6.9225 11.6703 6.3963L13.2664 2.72894C13.4956 2.20274 13.2664 1.62853 12.7558 1.44446C12.2452 1.2624 11.6462 1.5405 11.417 2.06669L9.82086 5.73406C9.59169 6.26025 9.82085 6.83446 10.3315 7.01853Z" fill="#258300"/>
</svg>
