<svg width="173" height="90" viewBox="0 0 173 90" fill="none" xmlns="http://www.w3.org/2000/svg">
<path d="M136.702 89.9722H131.483C129.566 89.9722 127.927 88.5957 127.604 86.715L126.206 78.588C125.794 76.1951 127.648 74.0083 130.086 74.0083H136.702C138.877 74.0083 140.638 75.7629 140.638 77.9257V86.0528C140.638 88.2176 138.875 89.9702 136.702 89.9702V89.9722Z" fill="#FFD2B3"/>
<path d="M147.338 89.9722H152.557C154.474 89.9722 156.113 88.5957 156.436 86.715L157.834 78.588C158.246 76.1951 156.392 74.0083 153.954 74.0083H147.338C145.163 74.0083 143.402 75.7629 143.402 77.9257V86.0528C143.402 88.2176 145.165 89.9702 147.338 89.9702V89.9722Z" fill="#FFD2B3"/>
<path d="M142.019 87.9695C158.598 87.9695 172.038 75.4799 172.038 60.0731C172.038 44.6664 158.598 32.1768 142.019 32.1768C125.44 32.1768 112 44.6664 112 60.0731C112 75.4799 125.44 87.9695 142.019 87.9695Z" fill="#FF8C00"/>
<path d="M161.102 56.7521C161.102 65.7915 152.559 59.6952 142.019 59.6952C131.479 59.6952 122.936 65.7915 122.936 56.7521C122.936 47.7128 131.479 40.384 142.019 40.384C152.559 40.384 161.102 47.7128 161.102 56.7521Z" fill="#FFEEE3"/>
<path d="M138.453 26.2067C142.182 30.1261 141.77 36.5385 141.77 36.5385C141.77 36.5385 135.313 36.5965 131.586 32.679C127.857 28.7596 128.269 22.3472 128.269 22.3472C128.269 22.3472 134.726 22.2892 138.453 26.2067Z" fill="#009A36"/>
<path d="M145.402 26.3948C141.464 30.1062 141.524 36.5306 141.524 36.5306C141.524 36.5306 147.967 36.9387 151.905 33.2294C155.843 29.518 155.783 23.0936 155.783 23.0936C155.783 23.0936 149.34 22.6854 145.402 26.3948Z" fill="#009A36"/>
<path d="M125.768 40.6752L125.864 40.8154C126.174 41.2647 126.791 41.3792 127.242 41.0711L128.88 39.9531C129.332 39.6451 129.447 39.0311 129.137 38.5819L129.04 38.4416C128.731 37.9923 128.114 37.8779 127.663 38.1859L126.025 39.3039C125.573 39.612 125.458 40.2259 125.768 40.6752Z" fill="#FF7000"/>
<path d="M122.378 43.1984L122.459 43.3001C122.721 43.6265 123.199 43.6799 123.527 43.4193L124.718 42.4731C125.046 42.2125 125.099 41.7367 124.838 41.4102L124.756 41.3086C124.494 40.9822 124.016 40.9288 123.688 41.1894L122.497 42.1356C122.169 42.3961 122.116 42.872 122.378 43.1984Z" fill="#FF7000"/>
<path d="M158.88 78.901L158.775 78.7671C158.437 78.3383 157.815 78.2631 157.384 78.5991L155.82 79.8182C155.39 80.1542 155.314 80.7742 155.651 81.203L155.757 81.3369C156.094 81.7657 156.717 81.8409 157.148 81.505L158.712 80.2858C159.142 79.9498 159.218 79.3298 158.88 78.901Z" fill="#FF7000"/>
<path d="M154.461 81.8569L154.401 81.7415C154.207 81.3711 153.748 81.2273 153.376 81.4202L152.024 82.121C151.652 82.314 151.508 82.7707 151.702 83.1411L151.762 83.2565C151.956 83.6269 152.415 83.7707 152.787 83.5777L154.138 82.877C154.51 82.684 154.655 82.2273 154.461 81.8569Z" fill="#FF7000"/>
<path d="M132.651 75.6649H131.803C129.308 75.6649 127.286 73.6522 127.286 71.1693C127.286 68.6863 129.308 66.6736 131.803 66.6736H132.651C135.192 66.6736 137.233 68.7564 137.166 71.2853C137.104 73.7222 135.1 75.6649 132.651 75.6649Z" fill="#FFEEE3"/>
<path d="M152.237 75.6649H151.389C148.894 75.6649 146.872 73.6522 146.872 71.1693C146.872 68.6863 148.894 66.6736 151.389 66.6736H152.237C154.778 66.6736 156.818 68.7564 156.752 71.2853C156.69 73.7222 154.685 75.6649 152.237 75.6649Z" fill="#FFEEE3"/>
<path d="M135.876 51.9822C136.774 51.9822 137.502 51.2154 137.502 50.2695C137.502 49.3237 136.774 48.5569 135.876 48.5569C134.977 48.5569 134.249 49.3237 134.249 50.2695C134.249 51.2154 134.977 51.9822 135.876 51.9822Z" fill="#383334"/>
<path d="M148.245 51.9822C149.143 51.9822 149.871 51.2154 149.871 50.2695C149.871 49.3237 149.143 48.5569 148.245 48.5569C147.347 48.5569 146.618 49.3237 146.618 50.2695C146.618 51.2154 147.347 51.9822 148.245 51.9822Z" fill="#383334"/>
<path d="M151.871 53.3306C152.008 53.6187 152.374 53.7507 152.689 53.6267L154.888 52.7604C155.204 52.6363 155.349 52.3022 155.214 52.0141C155.077 51.726 154.712 51.5939 154.396 51.718L152.197 52.5843C151.881 52.7084 151.736 53.0425 151.871 53.3306Z" fill="#383334"/>
<path d="M151.893 54.5591C151.785 54.8592 151.95 55.2094 152.261 55.3454L154.43 56.2818C154.742 56.4158 155.082 56.2818 155.19 55.9836C155.299 55.6835 155.134 55.3334 154.822 55.1974L152.653 54.261C152.342 54.127 152.002 54.261 151.893 54.5591Z" fill="#383334"/>
<path d="M132.169 53.3306C132.032 53.6187 131.666 53.7507 131.351 53.6267L129.151 52.7604C128.836 52.6363 128.691 52.3022 128.826 52.0141C128.962 51.726 129.328 51.5939 129.644 51.718L131.843 52.5843C132.159 52.7084 132.303 53.0425 132.169 53.3306Z" fill="#383334"/>
<path d="M132.147 54.5591C132.255 54.8592 132.09 55.2094 131.779 55.3454L129.61 56.2818C129.298 56.4158 128.958 56.2818 128.85 55.9836C128.741 55.6835 128.906 55.3334 129.218 55.1974L131.387 54.261C131.698 54.127 132.038 54.261 132.147 54.5591Z" fill="#383334"/>
<path d="M142.059 53.1106C142.717 53.1106 143.251 52.7935 143.251 52.4024C143.251 52.0112 142.717 51.6941 142.059 51.6941C141.401 51.6941 140.867 52.0112 140.867 52.4024C140.867 52.7935 141.401 53.1106 142.059 53.1106Z" fill="#383334"/>
<path d="M24.6997 89.9722H19.4812C17.5634 89.9722 15.925 88.5957 15.6014 86.715L14.2043 78.588C13.7922 76.1951 15.6456 74.0083 18.084 74.0083H24.6997C26.8748 74.0083 28.6358 75.7629 28.6358 77.9257V86.0528C28.6358 88.2176 26.8728 89.9702 24.6997 89.9702V89.9722Z" fill="#FFD2B3"/>
<path d="M35.336 89.9722H40.5545C42.4723 89.9722 44.1106 88.5957 44.4343 86.715L45.8314 78.588C46.2435 76.1951 44.3901 74.0083 41.9516 74.0083H35.336C33.1609 74.0083 31.3999 75.7629 31.3999 77.9257V86.0528C31.3999 88.2176 33.1629 89.9702 35.336 89.9702V89.9722Z" fill="#FFD2B3"/>
<path d="M30.0189 87.9695C46.5979 87.9695 60.0378 75.4799 60.0378 60.0731C60.0378 44.6664 46.5979 32.1768 30.0189 32.1768C13.4399 32.1768 0 44.6664 0 60.0731C0 75.4799 13.4399 87.9695 30.0189 87.9695Z" fill="#FF8C00"/>
<path d="M49.1022 56.7521C49.1022 65.7915 40.5587 59.6952 30.019 59.6952C19.4793 59.6952 10.9358 65.7915 10.9358 56.7521C10.9358 47.7128 19.4793 40.384 30.019 40.384C40.5587 40.384 49.1022 47.7128 49.1022 56.7521Z" fill="#FFEEE3"/>
<path d="M26.4527 26.2067C30.1817 30.1261 29.7696 36.5385 29.7696 36.5385C29.7696 36.5385 23.3128 36.5965 19.5858 32.679C15.8568 28.7596 16.2689 22.3472 16.2689 22.3472C16.2689 22.3472 22.7258 22.2892 26.4527 26.2067Z" fill="#009A36"/>
<path d="M33.4022 26.3948C29.4642 30.1062 29.5245 36.5306 29.5245 36.5306C29.5245 36.5306 35.9673 36.9387 39.9053 33.2294C43.8434 29.52 43.7831 23.0936 43.7831 23.0936C43.7831 23.0936 37.3403 22.6854 33.4022 26.3948Z" fill="#009A36"/>
<path d="M13.7706 40.6718L13.8673 40.812C14.1768 41.2613 14.7937 41.3757 15.2451 41.0677L16.8831 39.9497C17.3345 39.6416 17.4495 39.0277 17.1399 38.5784L17.0433 38.4382C16.7337 37.9889 16.1169 37.8744 15.6655 38.1825L14.0275 39.3004C13.5761 39.6085 13.4611 40.2225 13.7706 40.6718Z" fill="#FF7000"/>
<path d="M10.3721 43.2045L10.4537 43.3062C10.7155 43.6326 11.1936 43.686 11.5216 43.4254L12.7124 42.4792C13.0404 42.2187 13.094 41.7428 12.8322 41.4164L12.7507 41.3147C12.4889 40.9883 12.0108 40.9349 11.6828 41.1955L10.4919 42.1417C10.164 42.4022 10.1103 42.8781 10.3721 43.2045Z" fill="#FF7000"/>
<path d="M46.8836 78.8954L46.7782 78.7615C46.4407 78.3327 45.8177 78.2575 45.3869 78.5935L43.8235 79.8126C43.3927 80.1486 43.3171 80.7686 43.6547 81.1974L43.76 81.3313C44.0976 81.7601 44.7205 81.8353 45.1514 81.4993L46.7148 80.2802C47.1456 79.9442 47.2212 79.3242 46.8836 78.8954Z" fill="#FF7000"/>
<path d="M42.4591 81.8559L42.3987 81.7405C42.2048 81.3701 41.7459 81.2263 41.3737 81.4193L40.0224 82.12C39.6502 82.313 39.5057 82.7697 39.6996 83.1402L39.76 83.2555C39.9539 83.6259 40.4128 83.7698 40.785 83.5768L42.1363 82.876C42.5085 82.683 42.653 82.2263 42.4591 81.8559Z" fill="#FF7000"/>
<path d="M20.6512 75.6649H19.8029C17.3082 75.6649 15.2859 73.6522 15.2859 71.1693C15.2859 68.6863 17.3082 66.6736 19.8029 66.6736H20.6512C23.1922 66.6736 25.2325 68.7564 25.1662 71.2853C25.1039 73.7222 23.0997 75.6649 20.6512 75.6649Z" fill="#FFEEE3"/>
<path d="M40.2369 75.6649H39.3886C36.8939 75.6649 34.8716 73.6522 34.8716 71.1693C34.8716 68.6863 36.8939 66.6736 39.3886 66.6736H40.2369C42.7779 66.6736 44.8182 68.7564 44.7519 71.2853C44.6896 73.7222 42.6854 75.6649 40.2369 75.6649Z" fill="#FFEEE3"/>
<path d="M23.8758 51.9822C24.774 51.9822 25.5021 51.2154 25.5021 50.2695C25.5021 49.3237 24.774 48.5569 23.8758 48.5569C22.9776 48.5569 22.2495 49.3237 22.2495 50.2695C22.2495 51.2154 22.9776 51.9822 23.8758 51.9822Z" fill="#383334"/>
<path d="M36.2427 51.9822C37.1409 51.9822 37.869 51.2154 37.869 50.2695C37.869 49.3237 37.1409 48.5569 36.2427 48.5569C35.3446 48.5569 34.6165 49.3237 34.6165 50.2695C34.6165 51.2154 35.3446 51.9822 36.2427 51.9822Z" fill="#383334"/>
<path d="M39.8692 53.3306C40.0059 53.6187 40.3717 53.7507 40.6873 53.6267L42.8865 52.7604C43.2022 52.6363 43.3469 52.3022 43.2122 52.0141C43.0755 51.726 42.7096 51.5939 42.394 51.718L40.1948 52.5843C39.8792 52.7084 39.7345 53.0425 39.8692 53.3306Z" fill="#383334"/>
<path d="M39.8913 54.5591C39.7827 54.8592 39.9476 55.2094 40.2592 55.3454L42.4282 56.2818C42.7398 56.4158 43.0795 56.2818 43.1881 55.9836C43.2967 55.6835 43.1318 55.3334 42.8202 55.1974L40.6512 54.261C40.3396 54.127 39.9999 54.261 39.8913 54.5591Z" fill="#383334"/>
<path d="M20.1668 53.3306C20.0301 53.6187 19.6642 53.7507 19.3486 53.6267L17.1494 52.7604C16.8338 52.6363 16.6891 52.3022 16.8238 52.0141C16.9605 51.726 17.3263 51.5939 17.6419 51.718L19.8411 52.5843C20.1567 52.7084 20.3015 53.0425 20.1668 53.3306Z" fill="#383334"/>
<path d="M20.1446 54.5591C20.2532 54.8592 20.0884 55.2094 19.7768 55.3454L17.6077 56.2818C17.2961 56.4158 16.9564 56.2818 16.8478 55.9836C16.7393 55.6835 16.9041 55.3334 17.2157 55.1974L19.3848 54.261C19.6964 54.127 20.0361 54.261 20.1446 54.5591Z" fill="#383334"/>
<path d="M30.0593 53.1106C30.7176 53.1106 31.2513 52.7935 31.2513 52.4024C31.2513 52.0112 30.7176 51.6941 30.0593 51.6941C29.4009 51.6941 28.8672 52.0112 28.8672 52.4024C28.8672 52.7935 29.4009 53.1106 30.0593 53.1106Z" fill="#383334"/>
<path d="M76.5055 89.9723H69.5621C67.0091 89.9723 64.83 88.1416 64.3998 85.6387L62.5403 74.8247C61.9935 71.6395 64.4581 68.7324 67.7026 68.7324H76.5055C79.3982 68.7324 81.7442 71.0673 81.7442 73.9464V84.7604C81.7442 87.6395 79.3982 89.9743 76.5055 89.9743V89.9723Z" fill="#FFD2B3"/>
<path d="M90.6576 89.9723H97.601C100.154 89.9723 102.333 88.1416 102.763 85.6387L104.623 74.8247C105.17 71.6395 102.705 68.7324 99.4605 68.7324H90.6576C87.7649 68.7324 85.4189 71.0673 85.4189 73.9464V84.7604C85.4189 87.6395 87.7649 89.9743 90.6576 89.9743V89.9723Z" fill="#FFD2B3"/>
<path d="M83.9414 87.3073C106 87.3073 123.883 70.69 123.883 50.1915C123.883 29.693 106 13.0757 83.9414 13.0757C61.8824 13.0757 44 29.693 44 50.1915C44 70.69 61.8824 87.3073 83.9414 87.3073Z" fill="#FF7000"/>
<path d="M109.053 46.6123C109.053 58.6388 97.6855 50.5278 83.6621 50.5278C69.6387 50.5278 58.2708 58.6388 58.2708 46.6123C58.2708 34.5859 69.6387 24.8342 83.6621 24.8342C97.6855 24.8342 109.053 34.5839 109.053 46.6123Z" fill="#FFEEE3"/>
<path d="M69.3049 73.4263H68.1751C64.8562 73.4263 62.1665 70.7493 62.1665 67.446C62.1665 64.1428 64.8562 61.4658 68.1751 61.4658H69.3049C72.6841 61.4658 75.3999 64.2389 75.3115 67.6001C75.227 70.8433 72.5635 73.4283 69.3049 73.4283V73.4263Z" fill="#FFEEE3"/>
<path d="M78.6707 5.13085C83.6319 10.3448 83.0851 18.878 83.0851 18.878C83.0851 18.878 74.4954 18.956 69.5341 13.742C64.5729 8.52811 65.1196 -0.00506105 65.1196 -0.00506105C65.1196 -0.00506105 73.7094 -0.0830902 78.6707 5.13085Z" fill="#31AC00"/>
<path d="M87.9177 5.38087C82.679 10.3187 82.7574 18.8679 82.7574 18.8679C82.7574 18.8679 91.3311 19.4121 96.5697 14.4742C101.808 9.53641 101.73 0.987234 101.73 0.987234C101.73 0.987234 93.1564 0.443033 87.9177 5.38087Z" fill="#31AC00"/>
<path d="M61.8798 24.38L62.006 24.5631C62.4185 25.1619 63.2406 25.3144 63.8422 24.9038L66.019 23.4181C66.6205 23.0076 66.7738 22.1894 66.3613 21.5907L66.2351 21.4075C65.8226 20.8088 65.0005 20.6563 64.3989 21.0668L62.2221 22.5525C61.6205 22.9631 61.4673 23.7813 61.8798 24.38Z" fill="#E85700"/>
<path d="M57.3553 27.7426L57.4619 27.8755C57.811 28.3107 58.4485 28.3819 58.8858 28.0345L60.4678 26.7775C60.9051 26.4301 60.9766 25.7956 60.6275 25.3603L60.521 25.2274C60.1719 24.7922 59.5344 24.721 59.0971 25.0685L57.515 26.3254C57.0777 26.6729 57.0062 27.3074 57.3553 27.7426Z" fill="#E85700"/>
<path d="M105.937 75.2356L105.799 75.0608C105.35 74.4894 104.519 74.3891 103.945 74.8368L101.868 76.4571C101.293 76.9048 101.193 77.7311 101.643 78.3025L101.78 78.4773C102.23 79.0488 103.06 79.149 103.634 78.7013L105.712 77.0811C106.286 76.6333 106.387 75.8071 105.937 75.2356Z" fill="#E85700"/>
<path d="M100.05 79.1733L99.9713 79.0225C99.7128 78.5286 99.1009 78.3368 98.6046 78.5941L96.8094 79.525C96.3132 79.7824 96.1205 80.3914 96.379 80.8852L96.458 81.0361C96.7165 81.53 97.3284 81.7217 97.8246 81.4644L99.6199 80.5335C100.116 80.2762 100.309 79.6672 100.05 79.1733Z" fill="#E85700"/>
<path d="M127.043 30.8303L128.175 21.6829C128.265 20.9506 127.879 20.2184 127.196 19.9363C126.241 19.5421 125.21 20.0883 124.966 21.0327L123.252 27.6871C123.169 28.0113 122.846 28.2133 122.516 28.1493C122.186 28.0853 121.967 27.7812 122.009 27.4531L122.858 20.6005C122.962 19.7502 122.389 18.9639 121.545 18.7998C120.693 18.6338 119.858 19.158 119.643 19.9963L117.929 26.6508C117.846 26.9749 117.523 27.177 117.193 27.1129L117.153 27.1049C116.827 27.0409 116.604 26.7368 116.646 26.4087L117.488 19.6021C117.579 18.8699 117.193 18.1376 116.509 17.8555C115.555 17.4613 114.523 18.0075 114.28 18.9519L111.97 27.9152C111.906 28.1633 111.719 29.2037 111.659 29.5118C111.295 31.3625 112.507 33.1552 114.367 33.5173L115.894 33.8154L110.171 57.6863C109.803 59.2189 110.792 60.7454 112.344 61.0475L114.288 61.4257C115.838 61.7278 117.328 60.6874 117.573 59.1348L121.384 34.8838L122.773 35.1539C124.633 35.5161 126.434 34.3096 126.798 32.4589C126.866 32.1108 127.017 31.0484 127.045 30.8283L127.043 30.8303Z" fill="#383334"/>
<path d="M113.245 66.4416H112.115C108.796 66.4416 106.106 63.7647 106.106 60.4614C106.106 57.1582 108.796 54.4812 112.115 54.4812H113.245C116.624 54.4812 119.34 57.2542 119.251 60.6155C119.167 63.8587 116.503 66.4436 113.245 66.4436V66.4416Z" fill="#FFEEE3"/>
<path d="M75.5988 40.268C76.7934 40.268 77.7618 39.2468 77.7618 37.9871C77.7618 36.7275 76.7934 35.7063 75.5988 35.7063C74.4042 35.7063 73.4358 36.7275 73.4358 37.9871C73.4358 39.2468 74.4042 40.268 75.5988 40.268Z" fill="#383334"/>
<path d="M92.0546 40.268C93.2492 40.268 94.2176 39.2468 94.2176 37.9871C94.2176 36.7275 93.2492 35.7063 92.0546 35.7063C90.86 35.7063 89.8916 36.7275 89.8916 37.9871C89.8916 39.2468 90.86 40.268 92.0546 40.268Z" fill="#383334"/>
<path d="M96.8792 42.0607C97.0601 42.4428 97.5486 42.6189 97.9687 42.4548L100.896 41.3024C101.316 41.1363 101.509 40.6922 101.328 40.31C101.147 39.9279 100.658 39.7518 100.238 39.9159L97.3114 41.0683C96.8912 41.2344 96.6983 41.6785 96.8792 42.0607Z" fill="#383334"/>
<path d="M96.9093 43.6933C96.7666 44.0914 96.9857 44.5596 97.3998 44.7377L100.287 45.9821C100.701 46.1602 101.153 45.9821 101.298 45.584C101.44 45.1858 101.221 44.7177 100.807 44.5396L97.9205 43.2951C97.5064 43.1171 97.0541 43.2951 96.9093 43.6933Z" fill="#383334"/>
<path d="M70.6657 42.0607C70.4848 42.4428 69.9963 42.6189 69.5762 42.4548L66.6493 41.3024C66.2291 41.1363 66.0361 40.6922 66.2171 40.31C66.398 39.9279 66.8865 39.7518 67.3066 39.9159L70.2335 41.0683C70.6537 41.2344 70.8467 41.6785 70.6657 42.0607Z" fill="#383334"/>
<path d="M70.6356 43.6933C70.7783 44.0914 70.5592 44.5596 70.1451 44.7377L67.2584 45.9821C66.8443 46.1602 66.3919 45.9821 66.2472 45.584C66.1045 45.1858 66.3236 44.7177 66.7377 44.5396L69.6244 43.2951C70.0385 43.1171 70.4908 43.2951 70.6356 43.6933Z" fill="#383334"/>
<path d="M81.5712 41.8566C83.1935 42.6809 85.0007 42.7049 86.621 41.8566C87.3909 41.4525 86.7094 40.29 85.9375 40.6942C84.7595 41.3124 83.4327 41.2944 82.2527 40.6942C81.4788 40.302 80.7933 41.4625 81.5692 41.8566H81.5712Z" fill="#383334"/>
<path d="M81.0929 43.1072C82.2146 41.8227 82.2468 40.2601 81.0929 38.9776C80.532 38.3534 79.6113 39.2757 80.1702 39.896C80.8316 40.6302 80.8135 41.4505 80.1702 42.1888C79.6214 42.817 80.5401 43.7394 81.0929 43.1072Z" fill="#383334"/>
</svg>
