<svg width="16" height="16" viewBox="0 0 16 16" fill="none" xmlns="http://www.w3.org/2000/svg">
<path d="M0.666504 11.4667C0.666504 11.089 0.763726 10.7417 0.958171 10.4251C1.15262 10.1084 1.41095 9.86675 1.73317 9.70008C2.42206 9.35564 3.12206 9.0973 3.83317 8.92508C4.54428 8.75286 5.2665 8.66675 5.99984 8.66675C6.73317 8.66675 7.45539 8.75286 8.1665 8.92508C8.87762 9.0973 9.57762 9.35564 10.2665 9.70008C10.5887 9.86675 10.8471 10.1084 11.0415 10.4251C11.2359 10.7417 11.3332 11.089 11.3332 11.4667V12.0001C11.3332 12.3667 11.2026 12.6806 10.9415 12.9417C10.6804 13.2029 10.3665 13.3334 9.99984 13.3334H1.99984C1.63317 13.3334 1.31928 13.2029 1.05817 12.9417C0.797059 12.6806 0.666504 12.3667 0.666504 12.0001V11.4667ZM12.2998 13.3334C12.4221 13.1334 12.5137 12.9195 12.5748 12.6917C12.6359 12.464 12.6665 12.2334 12.6665 12.0001V11.3334C12.6665 10.8445 12.5304 10.3751 12.2582 9.92508C11.9859 9.47508 11.5998 9.08897 11.0998 8.76675C11.6665 8.83342 12.1998 8.9473 12.6998 9.10842C13.1998 9.26953 13.6665 9.46675 14.0998 9.70008C14.4998 9.9223 14.8054 10.1695 15.0165 10.4417C15.2276 10.714 15.3332 11.0112 15.3332 11.3334V12.0001C15.3332 12.3667 15.2026 12.6806 14.9415 12.9417C14.6804 13.2029 14.3665 13.3334 13.9998 13.3334H12.2998ZM5.99984 8.00008C5.2665 8.00008 4.63873 7.73897 4.1165 7.21675C3.59428 6.69453 3.33317 6.06675 3.33317 5.33341C3.33317 4.60008 3.59428 3.9723 4.1165 3.45008C4.63873 2.92786 5.2665 2.66675 5.99984 2.66675C6.73317 2.66675 7.36095 2.92786 7.88317 3.45008C8.40539 3.9723 8.6665 4.60008 8.6665 5.33341C8.6665 6.06675 8.40539 6.69453 7.88317 7.21675C7.36095 7.73897 6.73317 8.00008 5.99984 8.00008ZM12.6665 5.33341C12.6665 6.06675 12.4054 6.69453 11.8832 7.21675C11.3609 7.73897 10.7332 8.00008 9.99984 8.00008C9.87762 8.00008 9.72206 7.98619 9.53317 7.95842C9.34428 7.93064 9.18873 7.90008 9.0665 7.86675C9.3665 7.51119 9.59706 7.11675 9.75817 6.68341C9.91928 6.25008 9.99984 5.80008 9.99984 5.33341C9.99984 4.86675 9.91928 4.41675 9.75817 3.98341C9.59706 3.55008 9.3665 3.15564 9.0665 2.80008C9.22206 2.74453 9.37762 2.70841 9.53317 2.69175C9.68873 2.67508 9.84428 2.66675 9.99984 2.66675C10.7332 2.66675 11.3609 2.92786 11.8832 3.45008C12.4054 3.9723 12.6665 4.60008 12.6665 5.33341Z" fill="#6C6E7E"/>
</svg>
