<svg width="375" height="812" viewBox="0 0 375 812" fill="none" xmlns="http://www.w3.org/2000/svg">
<g clip-path="url(#clip0_31233_6879)">
<path d="M375 0H0V812H375V0Z" fill="#B6E3FF"/>
<path d="M375.1 587.69C375.07 587.59 375.04 587.5 375.01 587.4V587.23H374.96C350.26 506.72 275.73 448.22 187.6 448.22C99.47 448.22 24.94 506.72 0.24 587.23H0V812H375V587.69H375.09H375.1Z" fill="url(#paint0_linear_31233_6879)"/>
<path d="M245.09 492.13C255.937 492.13 264.73 490.348 264.73 488.15C264.73 485.952 255.937 484.17 245.09 484.17C234.243 484.17 225.45 485.952 225.45 488.15C225.45 490.348 234.243 492.13 245.09 492.13Z" fill="#309200"/>
<path d="M238.2 488.74H235.57C232.88 488.74 230.58 486.8 230.13 484.15L229.2 478.72C228.62 475.35 231.22 472.27 234.64 472.27H238.2C241.25 472.27 243.72 474.74 243.72 477.79V483.22C243.72 486.27 241.25 488.74 238.2 488.74Z" fill="#FFD2B3"/>
<path d="M252.08 488.74H254.71C257.4 488.74 259.7 486.8 260.15 484.15L261.08 478.72C261.66 475.35 259.06 472.27 255.64 472.27H252.08C249.03 472.27 246.56 474.74 246.56 477.79V483.22C246.56 486.27 249.03 488.74 252.08 488.74Z" fill="#FFD2B3"/>
<path d="M245.14 486.82C261.786 486.82 275.28 474.217 275.28 458.67C275.28 443.123 261.786 430.52 245.14 430.52C228.494 430.52 215 443.123 215 458.67C215 474.217 228.494 486.82 245.14 486.82Z" fill="#FF8C00"/>
<path d="M264.3 455.32C264.3 464.44 255.72 458.29 245.14 458.29C234.56 458.29 225.98 464.44 225.98 455.32C225.98 446.2 234.56 438.81 245.14 438.81C255.72 438.81 264.3 446.2 264.3 455.32Z" fill="#FFEEE3"/>
<path d="M241.56 424.5C245.3 428.45 244.89 434.92 244.89 434.92C244.89 434.92 238.41 434.98 234.66 431.03C230.92 427.08 231.33 420.61 231.33 420.61C231.33 420.61 237.81 420.55 241.56 424.5Z" fill="#258300"/>
<path d="M248.54 424.69C244.59 428.43 244.65 434.92 244.65 434.92C244.65 434.92 251.12 435.33 255.07 431.59C259.02 427.85 258.96 421.36 258.96 421.36C258.96 421.36 252.49 420.95 248.54 424.69Z" fill="#258300"/>
<path d="M228.029 439.166L228.12 439.298C228.432 439.753 229.055 439.869 229.51 439.557L231.151 438.432C231.607 438.119 231.723 437.497 231.41 437.041L231.32 436.909C231.008 436.454 230.385 436.338 229.93 436.65L228.288 437.776C227.833 438.088 227.717 438.71 228.029 439.166Z" fill="#FF7000"/>
<path d="M224.662 441.736L224.749 441.845C225.011 442.173 225.489 442.227 225.817 441.965L227.021 441.004C227.349 440.742 227.402 440.264 227.14 439.936L227.053 439.827C226.791 439.498 226.313 439.445 225.985 439.707L224.781 440.667C224.453 440.929 224.4 441.408 224.662 441.736Z" fill="#FF7000"/>
<path d="M262.405 478.137L262.306 478.011C261.965 477.577 261.337 477.5 260.902 477.841L259.336 479.068C258.901 479.409 258.825 480.037 259.165 480.472L259.264 480.598C259.605 481.033 260.233 481.109 260.668 480.768L262.234 479.541C262.669 479.201 262.745 478.572 262.405 478.137Z" fill="#FF7000"/>
<path d="M257.986 481.149L257.921 481.025C257.727 480.653 257.268 480.509 256.896 480.702L255.53 481.414C255.158 481.608 255.014 482.067 255.207 482.439L255.272 482.563C255.466 482.936 255.925 483.08 256.297 482.886L257.663 482.175C258.035 481.981 258.18 481.522 257.986 481.149Z" fill="#FF7000"/>
<path d="M235.73 474.4H234.88C232.38 474.4 230.34 472.37 230.34 469.86C230.34 467.36 232.37 465.32 234.88 465.32H235.73C238.28 465.32 240.33 467.42 240.26 469.97C240.2 472.43 238.19 474.39 235.73 474.39V474.4Z" fill="#FFEEE3"/>
<path d="M255.4 474.4H254.55C252.05 474.4 250.01 472.37 250.01 469.86C250.01 467.36 252.04 465.32 254.55 465.32H255.4C257.95 465.32 260 467.42 259.93 469.97C259.87 472.43 257.86 474.39 255.4 474.39V474.4Z" fill="#FFEEE3"/>
<path d="M238.97 450.5C239.87 450.5 240.6 449.725 240.6 448.77C240.6 447.815 239.87 447.04 238.97 447.04C238.07 447.04 237.34 447.815 237.34 448.77C237.34 449.725 238.07 450.5 238.97 450.5Z" fill="#383334"/>
<path d="M251.39 450.5C252.29 450.5 253.02 449.725 253.02 448.77C253.02 447.815 252.29 447.04 251.39 447.04C250.49 447.04 249.76 447.815 249.76 448.77C249.76 449.725 250.49 450.5 251.39 450.5Z" fill="#383334"/>
<path d="M255.03 451.86C255.17 452.15 255.53 452.28 255.85 452.16L258.06 451.29C258.38 451.16 258.52 450.83 258.39 450.54C258.25 450.25 257.89 450.12 257.57 450.24L255.36 451.11C255.04 451.24 254.9 451.57 255.03 451.86Z" fill="#686566"/>
<path d="M255.05 453.1C254.94 453.4 255.11 453.76 255.42 453.89L257.6 454.83C257.91 454.97 258.25 454.83 258.36 454.53C258.47 454.23 258.3 453.87 257.99 453.74L255.81 452.8C255.5 452.66 255.16 452.8 255.05 453.1Z" fill="#686566"/>
<path d="M235.25 451.86C235.11 452.15 234.75 452.28 234.43 452.16L232.22 451.29C231.9 451.16 231.76 450.83 231.89 450.54C232.03 450.25 232.39 450.12 232.71 450.24L234.92 451.11C235.24 451.24 235.38 451.57 235.25 451.86Z" fill="#686566"/>
<path d="M235.22 453.1C235.33 453.4 235.16 453.76 234.85 453.89L232.67 454.83C232.36 454.97 232.02 454.83 231.91 454.53C231.8 454.23 231.97 453.87 232.28 453.74L234.46 452.8C234.77 452.66 235.11 452.8 235.22 453.1Z" fill="#686566"/>
<path d="M245.18 451.64C245.843 451.64 246.38 451.322 246.38 450.93C246.38 450.538 245.843 450.22 245.18 450.22C244.517 450.22 243.98 450.538 243.98 450.93C243.98 451.322 244.517 451.64 245.18 451.64Z" fill="#383334"/>
<path d="M131.55 492.13C142.397 492.13 151.19 490.348 151.19 488.15C151.19 485.952 142.397 484.17 131.55 484.17C120.703 484.17 111.91 485.952 111.91 488.15C111.91 490.348 120.703 492.13 131.55 492.13Z" fill="#309200"/>
<path d="M124.67 488.74H122.04C119.35 488.74 117.05 486.8 116.6 484.15L115.67 478.72C115.09 475.35 117.69 472.27 121.11 472.27H124.67C127.72 472.27 130.19 474.74 130.19 477.79V483.22C130.19 486.27 127.72 488.74 124.67 488.74Z" fill="#FFD2B3"/>
<path d="M138.55 488.74H141.18C143.87 488.74 146.17 486.8 146.62 484.15L147.55 478.72C148.13 475.35 145.53 472.27 142.11 472.27H138.55C135.5 472.27 133.03 474.74 133.03 477.79V483.22C133.03 486.27 135.5 488.74 138.55 488.74Z" fill="#FFD2B3"/>
<path d="M131.61 486.82C148.256 486.82 161.75 474.217 161.75 458.67C161.75 443.123 148.256 430.52 131.61 430.52C114.964 430.52 101.47 443.123 101.47 458.67C101.47 474.217 114.964 486.82 131.61 486.82Z" fill="#FF8C00"/>
<path d="M150.77 455.32C150.77 464.44 142.19 458.29 131.61 458.29C121.03 458.29 112.45 464.44 112.45 455.32C112.45 446.2 121.03 438.81 131.61 438.81C142.19 438.81 150.77 446.2 150.77 455.32Z" fill="#FFEEE3"/>
<path d="M128.03 424.5C131.77 428.45 131.36 434.92 131.36 434.92C131.36 434.92 124.88 434.98 121.13 431.03C117.39 427.08 117.8 420.61 117.8 420.61C117.8 420.61 124.28 420.55 128.03 424.5Z" fill="#258300"/>
<path d="M135 424.69C131.05 428.43 131.11 434.92 131.11 434.92C131.11 434.92 137.58 435.33 141.53 431.59C145.48 427.85 145.42 421.36 145.42 421.36C145.42 421.36 138.95 420.95 135 424.69Z" fill="#258300"/>
<path d="M114.504 439.161L114.594 439.292C114.906 439.748 115.529 439.864 115.984 439.552L117.626 438.426C118.081 438.114 118.197 437.491 117.885 437.036L117.794 436.904C117.482 436.449 116.859 436.332 116.404 436.645L114.763 437.77C114.307 438.083 114.191 438.705 114.504 439.161Z" fill="#FF7000"/>
<path d="M111.118 441.737L111.205 441.846C111.467 442.174 111.945 442.228 112.273 441.966L113.477 441.005C113.805 440.743 113.859 440.265 113.597 439.937L113.509 439.828C113.248 439.5 112.769 439.446 112.441 439.708L111.238 440.669C110.91 440.931 110.856 441.409 111.118 441.737Z" fill="#FF7000"/>
<path d="M148.882 478.141L148.783 478.015C148.442 477.58 147.814 477.504 147.379 477.845L145.813 479.072C145.378 479.413 145.302 480.041 145.642 480.476L145.741 480.602C146.082 481.036 146.71 481.113 147.145 480.772L148.711 479.545C149.146 479.204 149.222 478.576 148.882 478.141Z" fill="#FF7000"/>
<path d="M144.456 481.155L144.392 481.031C144.198 480.659 143.739 480.514 143.367 480.708L142.001 481.42C141.629 481.614 141.484 482.073 141.678 482.445L141.743 482.569C141.937 482.941 142.396 483.086 142.768 482.892L144.134 482.18C144.506 481.986 144.65 481.527 144.456 481.155Z" fill="#FF7000"/>
<path d="M122.2 474.4H121.35C118.85 474.4 116.81 472.37 116.81 469.86C116.81 467.36 118.84 465.32 121.35 465.32H122.2C124.75 465.32 126.8 467.42 126.73 469.97C126.67 472.43 124.66 474.39 122.2 474.39V474.4Z" fill="#FFEEE3"/>
<path d="M141.87 474.4H141.02C138.52 474.4 136.48 472.37 136.48 469.86C136.48 467.36 138.51 465.32 141.02 465.32H141.87C144.42 465.32 146.47 467.42 146.4 469.97C146.34 472.43 144.33 474.39 141.87 474.39V474.4Z" fill="#FFEEE3"/>
<path d="M125.44 450.5C126.34 450.5 127.07 449.725 127.07 448.77C127.07 447.815 126.34 447.04 125.44 447.04C124.54 447.04 123.81 447.815 123.81 448.77C123.81 449.725 124.54 450.5 125.44 450.5Z" fill="#383334"/>
<path d="M137.86 450.5C138.76 450.5 139.49 449.725 139.49 448.77C139.49 447.815 138.76 447.04 137.86 447.04C136.96 447.04 136.23 447.815 136.23 448.77C136.23 449.725 136.96 450.5 137.86 450.5Z" fill="#383334"/>
<path d="M141.5 451.86C141.64 452.15 142 452.28 142.32 452.16L144.53 451.29C144.85 451.16 144.99 450.83 144.86 450.54C144.72 450.25 144.36 450.12 144.04 450.24L141.83 451.11C141.51 451.24 141.37 451.57 141.5 451.86Z" fill="#686566"/>
<path d="M141.52 453.1C141.41 453.4 141.58 453.76 141.89 453.89L144.07 454.83C144.38 454.97 144.72 454.83 144.83 454.53C144.94 454.23 144.77 453.87 144.46 453.74L142.28 452.8C141.97 452.66 141.63 452.8 141.52 453.1Z" fill="#686566"/>
<path d="M121.72 451.86C121.58 452.15 121.22 452.28 120.9 452.16L118.69 451.29C118.37 451.16 118.23 450.83 118.36 450.54C118.5 450.25 118.86 450.12 119.18 450.24L121.39 451.11C121.71 451.24 121.85 451.57 121.72 451.86Z" fill="#686566"/>
<path d="M121.69 453.1C121.8 453.4 121.63 453.76 121.32 453.89L119.14 454.83C118.83 454.97 118.49 454.83 118.38 454.53C118.27 454.23 118.44 453.87 118.75 453.74L120.93 452.8C121.24 452.66 121.58 452.8 121.69 453.1Z" fill="#686566"/>
<path d="M131.65 451.64C132.313 451.64 132.85 451.322 132.85 450.93C132.85 450.538 132.313 450.22 131.65 450.22C130.987 450.22 130.45 450.538 130.45 450.93C130.45 451.322 130.987 451.64 131.65 451.64Z" fill="#383334"/>
<path d="M189.998 503.43C203.281 503.43 214.048 501.25 214.048 498.56C214.048 495.87 203.281 493.69 189.998 493.69C176.716 493.69 165.948 495.87 165.948 498.56C165.948 501.25 176.716 503.43 189.998 503.43Z" fill="#309200"/>
<path d="M181.168 500.08H177.738C174.238 500.08 171.248 497.56 170.658 494.11L169.448 487.05C168.698 482.66 172.078 478.66 176.528 478.66H181.168C185.138 478.66 188.348 481.88 188.348 485.84V492.9C188.348 496.87 185.128 500.08 181.168 500.08Z" fill="#FFD2B3"/>
<path d="M199.228 500.08H202.658C206.158 500.08 209.148 497.56 209.738 494.11L210.948 487.05C211.698 482.66 208.318 478.66 203.868 478.66H199.228C195.258 478.66 192.048 481.88 192.048 485.84V492.9C192.048 496.87 195.268 500.08 199.228 500.08Z" fill="#FFD2B3"/>
<path d="M190.198 497.39C212.35 497.39 230.308 480.623 230.308 459.94C230.308 439.257 212.35 422.49 190.198 422.49C168.046 422.49 150.088 439.257 150.088 459.94C150.088 480.623 168.046 497.39 190.198 497.39Z" fill="#FF7000"/>
<path d="M215.688 456.33C215.688 468.46 204.268 460.28 190.188 460.28C176.108 460.28 164.688 468.46 164.688 456.33C164.688 444.2 176.108 434.36 190.188 434.36C204.268 434.36 215.688 444.2 215.688 456.33Z" fill="#FFEEE3"/>
<path d="M185.428 414.48C190.408 419.74 189.858 428.35 189.858 428.35C189.858 428.35 181.228 428.43 176.248 423.17C171.268 417.91 171.818 409.3 171.818 409.3C171.818 409.3 180.448 409.22 185.428 414.48Z" fill="#31AC00"/>
<path d="M194.718 414.73C189.458 419.71 189.538 428.34 189.538 428.34C189.538 428.34 198.148 428.89 203.408 423.91C208.668 418.93 208.588 410.3 208.588 410.3C208.588 410.3 199.978 409.75 194.718 414.73Z" fill="#31AC00"/>
<path d="M168.299 433.888L168.424 434.069C168.839 434.675 169.667 434.829 170.273 434.414L172.45 432.921C173.056 432.505 173.21 431.678 172.795 431.072L172.67 430.89C172.255 430.285 171.427 430.13 170.821 430.546L168.644 432.039C168.038 432.454 167.884 433.282 168.299 433.888Z" fill="#E85700"/>
<path d="M163.779 437.315L163.885 437.448C164.236 437.888 164.878 437.96 165.318 437.609L166.905 436.342C167.345 435.991 167.417 435.349 167.066 434.909L166.96 434.776C166.608 434.335 165.966 434.263 165.526 434.615L163.94 435.881C163.499 436.233 163.427 436.875 163.779 437.315Z" fill="#E85700"/>
<path d="M213.496 485.675L213.36 485.502C212.907 484.923 212.071 484.822 211.493 485.275L209.415 486.903C208.837 487.356 208.735 488.192 209.188 488.77L209.324 488.944C209.777 489.522 210.613 489.623 211.191 489.17L213.269 487.542C213.848 487.089 213.949 486.253 213.496 485.675Z" fill="#E85700"/>
<path d="M207.593 489.656L207.515 489.505C207.254 489.006 206.638 488.812 206.139 489.072L204.339 490.01C203.839 490.27 203.645 490.886 203.905 491.386L203.984 491.537C204.244 492.036 204.86 492.23 205.36 491.97L207.16 491.032C207.66 490.772 207.854 490.156 207.593 489.656Z" fill="#E85700"/>
<path d="M143.878 452.13L140.148 443.61C139.848 442.93 140.008 442.11 140.588 441.64C141.398 440.98 142.548 441.22 143.048 442.06L146.618 448C146.788 448.29 147.158 448.39 147.458 448.24C147.758 448.09 147.878 447.73 147.748 447.42L144.958 441.04C144.608 440.25 144.938 439.32 145.698 438.92C146.458 438.52 147.428 438.78 147.878 439.53L151.448 445.47C151.618 445.76 151.988 445.86 152.288 445.71L152.328 445.69C152.628 445.53 152.748 445.18 152.618 444.87L149.838 438.53C149.538 437.85 149.698 437.03 150.278 436.56C151.088 435.9 152.238 436.14 152.738 436.98L157.548 444.98C157.678 445.2 158.158 446.15 158.308 446.43C159.188 448.11 158.538 450.2 156.858 451.08L155.478 451.81L167.878 473.24C168.678 474.62 168.168 476.38 166.758 477.11L164.998 478.03C163.598 478.77 161.858 478.19 161.178 476.76L150.508 454.41L149.248 455.07C147.568 455.95 145.478 455.3 144.598 453.62C144.428 453.3 143.978 452.32 143.888 452.12L143.878 452.13Z" fill="#474243"/>
<path d="M167.438 482.59L168.528 482.27C171.718 481.32 173.538 477.96 172.588 474.76C171.638 471.57 168.278 469.75 165.078 470.7L163.988 471.02C160.738 471.99 158.928 475.45 159.978 478.68C160.998 481.79 164.308 483.52 167.438 482.59Z" fill="#FFEEE3"/>
<path d="M235.128 440.57L236.638 431.41C236.758 430.68 236.398 429.92 235.728 429.61C234.788 429.17 233.728 429.68 233.448 430.62L231.448 437.25C231.348 437.57 231.018 437.76 230.688 437.68C230.358 437.6 230.158 437.29 230.208 436.96L231.338 430.1C231.478 429.25 230.938 428.43 230.098 428.23C229.258 428.03 228.388 428.52 228.138 429.35L226.138 435.98C226.038 436.3 225.708 436.49 225.378 436.41H225.338C225.018 436.32 224.808 436.01 224.858 435.68L225.988 428.86C226.108 428.13 225.748 427.37 225.078 427.06C224.138 426.62 223.078 427.13 222.798 428.07L220.108 437C220.038 437.25 219.798 438.29 219.728 438.59C219.288 440.44 220.428 442.29 222.278 442.73L223.798 443.09L217.068 466.88C216.638 468.41 217.568 469.99 219.108 470.35L221.038 470.81C222.578 471.18 224.118 470.19 224.428 468.64L229.258 444.39L230.638 444.72C232.488 445.16 234.348 444.02 234.788 442.18C234.868 441.83 235.068 440.77 235.108 440.55L235.128 440.57Z" fill="#474243"/>
<path d="M219.788 475.91L218.658 475.86C215.328 475.72 212.738 472.91 212.878 469.58C213.018 466.25 215.828 463.66 219.158 463.8L220.288 463.85C223.678 463.99 226.288 466.9 226.058 470.28C225.838 473.55 223.058 476.04 219.788 475.9V475.91Z" fill="#FFEEE3"/>
<path d="M181.988 449.93C183.187 449.93 184.158 448.9 184.158 447.63C184.158 446.36 183.187 445.33 181.988 445.33C180.79 445.33 179.818 446.36 179.818 447.63C179.818 448.9 180.79 449.93 181.988 449.93Z" fill="#383334"/>
<path d="M198.508 449.93C199.707 449.93 200.678 448.9 200.678 447.63C200.678 446.36 199.707 445.33 198.508 445.33C197.31 445.33 196.338 446.36 196.338 447.63C196.338 448.9 197.31 449.93 198.508 449.93Z" fill="#383334"/>
<path d="M203.358 451.74C203.538 452.13 204.028 452.3 204.448 452.14L207.388 450.98C207.808 450.81 208.008 450.36 207.818 449.98C207.638 449.59 207.148 449.42 206.728 449.58L203.788 450.74C203.368 450.91 203.168 451.36 203.358 451.74Z" fill="#686566"/>
<path d="M203.388 453.39C203.248 453.79 203.468 454.26 203.878 454.44L206.778 455.7C207.198 455.88 207.648 455.7 207.798 455.3C207.938 454.9 207.718 454.43 207.308 454.25L204.408 452.99C203.988 452.81 203.538 452.99 203.388 453.39Z" fill="#686566"/>
<path d="M177.038 451.74C176.858 452.13 176.368 452.3 175.948 452.14L173.008 450.98C172.588 450.81 172.388 450.36 172.578 449.98C172.758 449.59 173.248 449.42 173.668 449.58L176.608 450.74C177.028 450.91 177.228 451.36 177.038 451.74Z" fill="#686566"/>
<path d="M177.008 453.39C177.148 453.79 176.928 454.26 176.518 454.44L173.618 455.7C173.198 455.88 172.748 455.7 172.598 455.3C172.458 454.9 172.678 454.43 173.088 454.25L175.988 452.99C176.408 452.81 176.858 452.99 177.008 453.39Z" fill="#686566"/>
<path d="M187.988 451.53C188.768 451.93 189.598 452.18 190.478 452.19C191.358 452.2 192.258 451.95 193.058 451.53C193.378 451.36 193.478 450.91 193.298 450.6C193.108 450.27 192.698 450.18 192.368 450.36C192.078 450.51 191.898 450.59 191.558 450.69C191.368 450.74 191.178 450.79 190.988 450.81C191.058 450.81 190.988 450.81 190.948 450.81C190.898 450.81 190.848 450.81 190.798 450.82C190.688 450.82 190.578 450.82 190.468 450.82C189.848 450.82 189.218 450.64 188.658 450.35C188.338 450.19 187.908 450.26 187.728 450.59C187.568 450.9 187.638 451.35 187.968 451.52L187.988 451.53Z" fill="#383334"/>
<path d="M187.508 452.79C188.018 452.21 188.388 451.55 188.408 450.76C188.428 449.97 188.038 449.22 187.508 448.63C187.278 448.37 186.808 448.38 186.578 448.63C186.328 448.9 186.338 449.28 186.578 449.56C186.598 449.59 186.628 449.61 186.648 449.64C186.678 449.68 186.708 449.71 186.738 449.75C186.698 449.7 186.698 449.7 186.738 449.75C186.828 449.88 186.908 450.02 186.978 450.16C187.018 450.23 186.998 450.18 186.978 450.14C186.998 450.17 187.008 450.22 187.018 450.26C187.038 450.33 187.058 450.4 187.078 450.47C187.078 450.49 187.078 450.56 187.098 450.56C187.068 450.54 187.088 450.42 187.098 450.56C187.098 450.63 187.098 450.7 187.098 450.77C187.098 450.83 187.078 450.9 187.088 450.96C187.068 450.83 187.088 450.89 187.088 450.96C187.088 450.99 187.078 451.02 187.068 451.05C187.048 451.12 187.028 451.19 186.998 451.26C186.948 451.41 187.038 451.18 186.998 451.26C186.978 451.29 186.968 451.32 186.958 451.35C186.918 451.42 186.888 451.49 186.838 451.55C186.818 451.59 186.788 451.63 186.758 451.66C186.758 451.67 186.678 451.76 186.728 451.7C186.768 451.65 186.678 451.76 186.658 451.78C186.638 451.81 186.608 451.83 186.588 451.86C186.368 452.12 186.318 452.54 186.588 452.79C186.838 453.02 187.278 453.07 187.518 452.79H187.508Z" fill="#383334"/>
<path d="M318.38 437.76L336.97 468.07L337.38 460.15C337.83 451.58 333.45 444.24 325.98 441.03L318.38 437.76Z" fill="#45AB34"/>
<path d="M333.68 460.39L335.61 497.18L339.75 490.24C344.23 482.73 343.87 473.89 338.82 467.19L333.68 460.38V460.39Z" fill="#215726"/>
<path d="M304.26 452.01L337.14 467.31L333.02 460.44C328.57 453 320.71 449.23 312.56 450.61L304.26 452.02V452.01Z" fill="#2E7532"/>
<path d="M331.19 462.71L368.65 467.85L362.28 461.69C355.39 455.02 346.4 453.66 338.86 458.15L331.19 462.71Z" fill="#419944"/>
<path d="M332.62 462L358.24 486.04L356.59 478.33C354.8 469.99 348.72 464.14 340.74 463.08L332.62 462Z" fill="#2E7532"/>
<path d="M331 468.69L328.56 466.17C328.56 466.17 317.49 476.17 308.99 488.28C301.79 498.53 297.04 510.89 296.14 513.71L302.65 517.93C302.65 517.93 310.92 499.06 314.2 493.46C318.13 486.75 331 468.69 331 468.69Z" fill="#AD6525"/>
<path d="M328.55 469.99C331.041 469.99 333.06 467.971 333.06 465.48C333.06 462.989 331.041 460.97 328.55 460.97C326.059 460.97 324.04 462.989 324.04 465.48C324.04 467.971 326.059 469.99 328.55 469.99Z" fill="#F7BF4D"/>
<path d="M333.08 473.55C335.571 473.55 337.59 471.531 337.59 469.04C337.59 466.549 335.571 464.53 333.08 464.53C330.589 464.53 328.57 466.549 328.57 469.04C328.57 471.531 330.589 473.55 333.08 473.55Z" fill="#E8A42A"/>
<path d="M332.81 468.71C335.301 468.71 337.32 466.691 337.32 464.2C337.32 461.709 335.301 459.69 332.81 459.69C330.319 459.69 328.3 461.709 328.3 464.2C328.3 466.691 330.319 468.71 332.81 468.71Z" fill="#EDC87E"/>
<path d="M60.8099 437.76L42.2199 468.07L41.8099 460.15C41.3599 451.58 45.7399 444.24 53.2099 441.03L60.8099 437.76Z" fill="#45AB34"/>
<path d="M45.5201 460.39L43.5901 497.18L39.4501 490.24C34.9701 482.73 35.3301 473.89 40.3801 467.19L45.5201 460.38V460.39Z" fill="#215726"/>
<path d="M74.9401 452.01L42.0601 467.31L46.1801 460.44C50.6301 453 58.4901 449.23 66.6401 450.61L74.9401 452.02V452.01Z" fill="#2E7532"/>
<path d="M48.01 462.71L10.55 467.85L16.92 461.69C23.81 455.02 32.8 453.66 40.34 458.15L48.01 462.71Z" fill="#419944"/>
<path d="M46.58 462L20.96 486.04L22.61 478.33C24.4 469.99 30.48 464.14 38.46 463.08L46.58 462Z" fill="#2E7532"/>
<path d="M48.2 468.69L50.6399 466.17C50.6399 466.17 61.7099 476.17 70.2099 488.28C77.41 498.53 82.1599 510.89 83.0599 513.71L76.55 517.93C76.55 517.93 68.28 499.06 65 493.46C61.07 486.75 48.2 468.69 48.2 468.69Z" fill="#AD6525"/>
<path d="M50.6501 469.99C53.1409 469.99 55.1601 467.971 55.1601 465.48C55.1601 462.989 53.1409 460.97 50.6501 460.97C48.1593 460.97 46.1401 462.989 46.1401 465.48C46.1401 467.971 48.1593 469.99 50.6501 469.99Z" fill="#F7BF4D"/>
<path d="M46.1201 473.55C48.6109 473.55 50.6301 471.531 50.6301 469.04C50.6301 466.549 48.6109 464.53 46.1201 464.53C43.6293 464.53 41.6101 466.549 41.6101 469.04C41.6101 471.531 43.6293 473.55 46.1201 473.55Z" fill="#E8A42A"/>
<path d="M46.3901 468.71C48.8809 468.71 50.9001 466.691 50.9001 464.2C50.9001 461.709 48.8809 459.69 46.3901 459.69C43.8993 459.69 41.8801 461.709 41.8801 464.2C41.8801 466.691 43.8993 468.71 46.3901 468.71Z" fill="#EDC87E"/>
<path d="M341.36 393.82C342.205 393.82 342.89 393.135 342.89 392.29C342.89 391.445 342.205 390.76 341.36 390.76C340.515 390.76 339.83 391.445 339.83 392.29C339.83 393.135 340.515 393.82 341.36 393.82Z" fill="#CAEDFF"/>
<path d="M336.95 395.72C336.61 394.66 335.63 393.9 334.46 393.9C334.15 393.9 333.85 393.96 333.57 394.06C333.04 393.1 332.02 392.45 330.84 392.45C329.12 392.45 327.72 393.85 327.72 395.57C327.72 395.62 327.72 395.67 327.72 395.73H327.68C326.44 395.73 325.43 396.74 325.43 397.98V398.13C325.43 399.37 326.44 400.38 327.68 400.38H336.81C338.05 400.38 339.06 399.37 339.06 398.13V397.98C339.06 396.78 338.13 395.81 336.95 395.73V395.72Z" fill="#D7F2FF"/>
<path d="M303.02 413.45C303.02 411.38 301.4 409.69 299.36 409.57C298.66 408.21 297.25 407.27 295.62 407.27C295.08 407.27 294.57 407.37 294.1 407.56C293.25 405.99 291.6 404.93 289.69 404.93C287.05 404.93 284.88 406.98 284.69 409.57C282.69 409.73 281.11 411.4 281.11 413.44C281.11 415.59 282.85 417.33 285 417.33H285.15C285.85 418.68 287.26 419.61 288.89 419.61C289.84 419.61 290.72 419.29 291.43 418.75C292.32 419.57 293.52 420.08 294.83 420.08C296.79 420.08 298.48 418.96 299.31 417.32C301.39 417.24 303.05 415.53 303.05 413.44L303.02 413.45Z" fill="#EEF9FF"/>
<path d="M34.53 393.82C35.375 393.82 36.06 393.135 36.06 392.29C36.06 391.445 35.375 390.76 34.53 390.76C33.685 390.76 33 391.445 33 392.29C33 393.135 33.685 393.82 34.53 393.82Z" fill="#CAEDFF"/>
<path d="M38.9298 395.72C39.2698 394.66 40.2498 393.9 41.4198 393.9C41.7298 393.9 42.0298 393.96 42.3098 394.06C42.8398 393.1 43.8598 392.45 45.0398 392.45C46.7598 392.45 48.1598 393.85 48.1598 395.57C48.1598 395.62 48.1598 395.67 48.1598 395.73H48.1998C49.4398 395.73 50.4498 396.74 50.4498 397.98V398.13C50.4498 399.37 49.4398 400.38 48.1998 400.38H39.0698C37.8298 400.38 36.8198 399.37 36.8198 398.13V397.98C36.8198 396.78 37.7498 395.81 38.9298 395.73V395.72Z" fill="#D7F2FF"/>
<path d="M72.8598 413.45C72.8598 411.38 74.4798 409.69 76.5198 409.57C77.2198 408.21 78.6298 407.27 80.2598 407.27C80.7998 407.27 81.3098 407.37 81.7798 407.56C82.6298 405.99 84.2798 404.93 86.1898 404.93C88.8298 404.93 90.9998 406.98 91.1898 409.57C93.1898 409.73 94.7698 411.4 94.7698 413.44C94.7698 415.48 93.0298 417.33 90.8798 417.33H90.7298C90.0298 418.68 88.6198 419.61 86.9898 419.61C86.0398 419.61 85.1598 419.29 84.4498 418.75C83.5598 419.57 82.3598 420.08 81.0498 420.08C79.0898 420.08 77.3998 418.96 76.5698 417.32C74.4898 417.24 72.8298 415.53 72.8298 413.44L72.8598 413.45Z" fill="#EEF9FF"/>
<path d="M76 104.865C76 102.957 74.5205 101.393 72.6575 101.282C72.0219 100.029 70.7288 99.1632 69.2384 99.1632C68.7452 99.1632 68.2849 99.2631 67.8466 99.4295C67.0685 97.9873 65.5671 97 63.8247 97C61.4137 97 59.4411 98.8859 59.2658 101.282C57.4356 101.426 56 102.968 56 104.854C56 106.84 57.589 108.448 59.5507 108.448H59.6822C60.3178 109.702 61.6 110.556 63.0904 110.556C63.9562 110.556 64.7562 110.257 65.4027 109.769C66.2137 110.534 67.3096 111 68.5041 111C70.2904 111 71.8356 109.957 72.5918 108.448C74.4877 108.371 76 106.796 76 104.865Z" fill="#CDEEFF"/>
<path d="M230.905 98.3035C230.905 96.5317 229.5 95.0792 227.73 94.9762C227.126 93.8122 225.897 93.0087 224.481 93.0087C224.013 93.0087 223.576 93.1014 223.159 93.2559C222.42 91.9168 220.994 91 219.338 91C217.048 91 215.174 92.7512 215.007 94.9762C213.269 95.1101 211.905 96.542 211.905 98.2932C211.905 100.137 213.415 101.631 215.278 101.631H215.403C216.007 102.795 217.225 103.588 218.641 103.588C219.463 103.588 220.223 103.31 220.838 102.857C221.608 103.567 222.649 104 223.784 104C225.481 104 226.949 103.032 227.667 101.631C229.468 101.559 230.905 100.096 230.905 98.3035Z" fill="#D7F2FF"/>
<path d="M301.03 158.392H300.604C300.466 154.255 297.156 150.94 293.102 150.94C290.569 150.94 288.324 152.231 286.972 154.212C286.376 153.971 285.738 153.84 285.067 153.84C282.417 153.84 280.246 155.875 279.927 158.512C277.681 158.993 276 161.051 276 163.502V163.841C276 166.653 278.224 168.94 280.959 168.94H301.041C303.776 168.94 306 166.653 306 163.841V163.502C306 160.689 303.776 158.403 301.041 158.403L301.03 158.392Z" fill="#CDEEFF"/>
<path d="M137 169.664C137 167.063 139.147 164.956 141.848 164.809C142.767 163.1 144.637 161.925 146.807 161.925C147.515 161.925 148.202 162.062 148.821 162.292C149.939 160.332 152.131 159 154.655 159C158.152 159 161.019 161.569 161.263 164.82C163.908 165.019 166 167.116 166 169.674C166 172.369 163.698 174.55 160.853 174.55H160.654C159.724 176.249 157.865 177.402 155.706 177.402C154.444 177.402 153.282 177.004 152.352 176.333C151.168 177.371 149.596 178 147.858 178C145.268 178 143.021 176.595 141.937 174.54C139.192 174.435 137 172.306 137 169.674V169.664Z" fill="#CDEEFF"/>
<path d="M73.03 560.05C73.52 559.82 73.75 559.19 73.54 558.65L72.06 554.9C71.85 554.36 71.28 554.11 70.78 554.35C70.29 554.58 70.06 555.21 70.27 555.75L71.75 559.5C71.96 560.04 72.53 560.29 73.03 560.05Z" fill="#258300"/>
<path d="M76.75 553.82C76.21 553.84 75.75 554.32 75.73 554.9L75.6 558.93C75.58 559.51 76.01 559.96 76.55 559.94C77.09 559.92 77.55 559.44 77.57 558.86L77.7 554.83C77.72 554.25 77.29 553.8 76.75 553.82Z" fill="#258300"/>
<path d="M80.1899 560.02C80.6999 560.2 81.3099 559.92 81.5399 559.39L83.1399 555.69C83.3699 555.16 83.1399 554.58 82.6299 554.39C82.1199 554.21 81.5099 554.49 81.2799 555.02L79.6799 558.72C79.4499 559.25 79.6799 559.83 80.1899 560.02Z" fill="#258300"/>
<path d="M118.03 531.03C118.52 530.8 118.75 530.17 118.54 529.63L117.06 525.88C116.85 525.34 116.28 525.09 115.78 525.33C115.29 525.56 115.06 526.19 115.27 526.73L116.75 530.48C116.96 531.02 117.53 531.27 118.03 531.03Z" fill="#258300"/>
<path d="M121.75 524.8C121.21 524.82 120.75 525.3 120.73 525.88L120.6 529.91C120.58 530.49 121.01 530.94 121.55 530.92C122.09 530.9 122.55 530.42 122.57 529.84L122.7 525.81C122.72 525.23 122.29 524.78 121.75 524.8Z" fill="#258300"/>
<path d="M125.2 530.99C125.71 531.17 126.32 530.89 126.55 530.36L128.15 526.66C128.38 526.13 128.15 525.55 127.64 525.36C127.13 525.18 126.52 525.46 126.29 525.99L124.69 529.69C124.46 530.22 124.69 530.8 125.2 530.99Z" fill="#258300"/>
<path d="M252.45 529.62C252.94 529.39 253.17 528.76 252.96 528.22L251.48 524.47C251.27 523.93 250.7 523.68 250.2 523.92C249.71 524.15 249.48 524.78 249.69 525.32L251.17 529.07C251.38 529.61 251.95 529.86 252.45 529.62Z" fill="#258300"/>
<path d="M256.18 523.39C255.64 523.41 255.18 523.89 255.16 524.47L255.03 528.5C255.01 529.08 255.44 529.53 255.98 529.51C256.52 529.49 256.98 529.01 257 528.43L257.13 524.4C257.15 523.82 256.72 523.37 256.18 523.39Z" fill="#258300"/>
<path d="M259.62 529.58C260.13 529.76 260.74 529.48 260.97 528.95L262.57 525.25C262.8 524.72 262.57 524.14 262.06 523.95C261.55 523.77 260.94 524.05 260.71 524.58L259.11 528.28C258.88 528.81 259.11 529.39 259.62 529.58Z" fill="#258300"/>
<path d="M293.14 556.75C293.63 556.52 293.86 555.89 293.65 555.35L292.17 551.6C291.96 551.06 291.39 550.81 290.89 551.05C290.4 551.28 290.17 551.91 290.38 552.45L291.86 556.2C292.07 556.74 292.64 556.99 293.14 556.75Z" fill="#258300"/>
<path d="M296.86 550.51C296.32 550.53 295.86 551.01 295.84 551.59L295.71 555.62C295.69 556.2 296.12 556.65 296.66 556.63C297.2 556.61 297.66 556.13 297.68 555.55L297.81 551.52C297.83 550.94 297.4 550.49 296.86 550.51Z" fill="#258300"/>
<path d="M300.31 556.71C300.82 556.89 301.43 556.61 301.66 556.08L303.26 552.38C303.49 551.85 303.26 551.27 302.75 551.08C302.24 550.9 301.63 551.18 301.4 551.71L299.8 555.41C299.57 555.94 299.8 556.52 300.31 556.71Z" fill="#258300"/>
<path d="M113.071 339.02V340.5C113.071 344.59 114.231 348.39 116.281 351.57C117.511 353.54 117.511 356.19 115.471 357.56C113.251 359.04 110.681 358.51 109.231 356.08C109.831 354.88 110.151 353.72 110.251 352.2C109.581 353.89 108.771 355.41 107.891 356.78C106.411 359 103.701 359.04 101.691 357.7C99.6507 356.33 99.5407 354 100.911 351.85C102.921 348.64 104.121 344.59 104.121 340.5V339.02H102.781C101.261 339.02 100.031 337.19 100.031 334.69C100.031 332.19 101.261 330.57 102.781 330.39C106.451 329.93 110.531 329.93 114.161 330.39C115.711 330.57 116.941 332.22 116.941 334.69C116.941 337.16 115.711 339.02 114.161 339.03H113.071V339.02ZM116.631 348.39C115.291 348.39 114.271 347.37 114.271 343.74C114.271 340.11 115.291 339.12 116.631 339.12H117.901C117.931 337.15 118.011 335.17 118.081 333.16C118.111 331.15 119.561 330.13 121.461 330.13C123.361 330.13 124.741 331.15 124.841 333.16C125.231 341.2 125.091 348.74 124.841 356.84C124.771 358.85 123.291 359.87 121.461 359.87C119.631 359.87 118.111 358.85 118.081 356.84C117.971 353.99 117.901 351.17 117.871 348.38H116.641L116.631 348.39ZM129.561 360.27C127.691 360.27 126.181 359.25 126.111 357.24C125.861 349.17 125.861 341.13 126.111 333.06C126.181 331.05 127.701 330.03 129.561 330.03C131.421 330.03 132.911 331.05 132.981 333.06C133.301 341.13 133.301 349.17 132.981 357.24C132.911 359.25 131.471 360.27 129.561 360.27Z" fill="#FF7000"/>
<path d="M158.001 356.1V358.07C157.971 359.69 155.501 360.61 152.291 360.61C149.081 360.61 146.651 359.69 146.621 358.07L146.581 356.1H139.001C136.891 356.1 135.191 354.41 135.191 352.3C135.191 350.19 136.881 348.49 139.001 348.49H165.611C167.691 348.49 169.421 350.18 169.421 352.29C169.421 354.4 167.691 356.1 165.611 356.1H158.001ZM159.201 337.6C160.541 338.41 162.511 338.94 164.701 339.36C167.061 339.82 168.471 341.72 167.801 344.19C167.131 346.69 165.121 347.12 162.621 346.87C159.411 346.55 155.681 345.6 152.931 344.23C153.741 343.6 154.621 342.75 155.331 341.59C151.561 344.9 147.401 346.31 141.971 347.16C139.471 347.55 137.461 347.13 136.791 344.62C136.121 342.15 137.531 340.11 139.891 339.65C142.151 339.19 144.471 338.56 145.951 337.61H141.441C138.941 337.61 137.601 336.1 137.601 334.02C137.601 331.94 138.971 330.53 141.441 330.39C148.211 329.97 156.381 329.96 163.181 330.39C165.611 330.53 166.991 331.98 166.991 334.02C166.991 336.21 165.621 337.61 163.181 337.62H159.201V337.6Z" fill="#FF7000"/>
<path d="M183.871 338.06C185.241 338.06 186.621 338.02 187.821 337.88C190.361 337.56 191.701 338.83 191.981 341.26C192.301 344.01 191.101 345.84 188.351 346.26C184.371 346.93 179.401 346.93 175.451 346.3C173.161 345.95 170.971 345.24 170.691 343.13C170.161 339.5 170.161 336.86 170.691 333.23C170.971 331.12 172.981 330.06 175.621 330.06C178.261 330.06 180.271 331.15 180.521 333.23C180.841 335.91 180.841 338.48 180.521 340.88C181.081 340 181.331 339.05 181.441 338.06H183.871ZM197.581 347.78C200.751 347.78 202.161 349.58 202.481 352.15C202.661 353.49 202.661 354.76 202.481 356.06C202.161 358.63 200.751 360.22 197.581 360.43C190.741 360.85 184.961 360.85 178.131 360.43C174.961 360.22 173.551 358.63 173.231 356.06C173.051 354.76 173.051 353.49 173.231 352.15C173.551 349.58 174.961 347.78 178.131 347.78H197.581ZM185.461 352.89C186.411 353.74 186.411 354.76 185.461 355.64C186.831 354.65 188.951 354.62 190.321 355.6C189.371 354.72 189.371 353.73 190.321 352.89C188.951 353.88 186.831 353.88 185.461 352.89ZM201.841 345.42C201.101 346.55 199.481 347.11 197.511 347.11C194.871 347.11 192.861 346.09 192.721 344.04C192.401 340.52 192.401 336.71 192.721 333.08C192.861 331.07 194.871 330.05 197.511 330.05C199.481 330.05 201.101 330.61 201.851 331.74H202.591C204.031 331.74 205.161 332.76 205.161 334.95C205.161 337.52 204.241 338.19 202.801 338.19H202.591V338.97H202.801C204.241 338.97 205.161 339.64 205.161 342.18C205.161 344.4 204.031 345.42 202.591 345.42H201.851H201.841Z" fill="#FF7000"/>
<path d="M219.111 338.05C220.481 338.05 221.861 338.01 223.061 337.87C225.601 337.55 226.941 338.82 227.221 341.25C227.541 344 226.341 345.83 223.591 346.25C219.611 346.92 214.641 346.92 210.691 346.29C208.401 345.94 206.211 345.23 205.931 343.12C205.401 339.49 205.401 336.85 205.931 333.22C206.211 331.11 208.221 330.05 210.861 330.05C213.501 330.05 215.511 331.14 215.761 333.22C216.081 335.9 216.081 338.47 215.761 340.87C216.321 339.99 216.571 339.04 216.681 338.05H219.111ZM232.821 347.77C235.991 347.77 237.401 349.57 237.721 352.14C237.901 353.48 237.901 354.75 237.721 356.05C237.401 358.62 235.991 360.21 232.821 360.42C225.981 360.84 220.201 360.84 213.371 360.42C210.201 360.21 208.791 358.62 208.471 356.05C208.291 354.75 208.291 353.48 208.471 352.14C208.791 349.57 210.201 347.77 213.371 347.77H232.821ZM220.701 352.89C221.651 353.74 221.651 354.76 220.701 355.64C222.071 354.65 224.191 354.62 225.561 355.6C224.611 354.72 224.611 353.73 225.561 352.89C224.191 353.88 222.071 353.88 220.701 352.89ZM237.091 345.41C236.351 346.54 234.731 347.1 232.761 347.1C230.121 347.1 228.111 346.08 227.971 344.03C227.651 340.51 227.651 336.7 227.971 333.07C228.111 331.06 230.121 330.04 232.761 330.04C234.731 330.04 236.351 330.6 237.101 331.73H237.841C239.281 331.73 240.411 332.75 240.411 334.94C240.411 337.51 239.491 338.18 238.051 338.18H237.841V338.96H238.051C239.491 338.96 240.411 339.63 240.411 342.17C240.411 344.39 239.281 345.41 237.841 345.41H237.101H237.091Z" fill="#FF7000"/>
<path d="M250.581 338.36C250.441 337.69 250.051 337.09 249.521 336.49C250.151 338.11 250.151 340.05 249.521 341.67C250.051 341.04 250.441 340.51 250.581 339.8H256.471C257.461 339.8 258.411 339.73 259.251 339.62C261.261 339.37 262.701 340.47 262.951 342.83C263.231 345.26 262.251 347.16 259.391 347.59C254.741 348.33 250.091 348.33 246.421 347.94C242.901 347.52 241.381 345.61 241.101 343.29C240.641 339.7 240.641 338.46 241.101 334.9C241.381 332.57 242.901 330.56 246.421 330.21C249.731 329.93 253.361 329.93 256.711 330.21C260.521 330.63 261.681 332.04 261.681 334.37C261.681 336.7 260.521 338.35 257.981 338.35H250.581V338.36ZM270.431 353.06C272.541 353.06 273.881 354.72 273.881 356.72C273.881 358.72 272.541 360.1 268.811 360.39C262.501 360.88 255.281 360.92 250.241 360.43C246.471 360.08 244.041 359.55 243.751 357.08C243.541 355.39 243.571 352.85 243.821 351.48C244.171 349.68 246.641 349.26 249.111 349.26C251.261 349.26 254.111 349.68 254.401 351.48C254.581 352.82 254.611 354.09 254.471 355.53C255.031 354.75 255.171 353.91 255.171 353.06H270.431ZM273.071 344.07C273.031 345.66 273.001 347.03 272.931 347.98C272.681 350.73 270.851 351.79 268.381 351.79C265.911 351.79 264.051 350.73 263.831 347.98C263.621 344.91 263.621 336.98 263.831 333.88C264.041 331.1 265.911 330.04 268.381 330.04C270.851 330.04 272.681 331.1 272.931 333.88C272.931 334.16 272.971 334.48 272.971 334.8H273.291C274.731 334.8 275.651 335.79 275.651 339.42C275.651 343.05 274.731 344.07 273.291 344.07H273.081H273.071Z" fill="#FF7000"/>
</g>
<defs>
<linearGradient id="paint0_linear_31233_6879" x1="187.55" y1="431.83" x2="187.55" y2="812.79" gradientUnits="userSpaceOnUse">
<stop offset="0.398055" stop-color="#31AC00"/>
<stop offset="0.495728" stop-color="#2FA500"/>
<stop offset="0.7" stop-color="#247E01"/>
<stop offset="0.89" stop-color="#1E6501"/>
<stop offset="1" stop-color="#1C5D02"/>
</linearGradient>
<clipPath id="clip0_31233_6879">
<rect width="375.29" height="812" fill="white"/>
</clipPath>
</defs>
</svg>
