<svg width="170" height="32" viewBox="0 0 170 32" fill="none" xmlns="http://www.w3.org/2000/svg">
<g clip-path="url(#clip0_31175_10925)">
<path d="M12.6534 9.34653V10.8861C12.6534 15.1384 13.7787 19.0965 15.7578 22.3954C16.9513 24.4477 16.9513 27.1966 14.9733 28.6268C12.8243 30.1663 10.3345 29.6163 8.9365 27.0872C9.51647 25.8407 9.82376 24.6314 9.9255 23.0558C9.27735 24.8151 8.49286 26.3919 7.6402 27.8209C6.20757 30.1302 3.58142 30.1663 1.63698 28.7744C-0.341016 27.3453 -0.443797 24.9256 0.887106 22.6895C2.83155 19.3535 3.9915 15.1384 3.9915 10.8872V9.34766H2.6952C1.22691 9.34653 0.0333986 7.44071 0.0333986 4.83838C0.0333986 2.23604 1.22691 0.549995 2.69415 0.366287C6.24113 -0.11045 10.1982 -0.11045 13.7116 0.366287C15.2124 0.549995 16.4059 2.27211 16.4059 4.83838C16.4059 7.40464 15.2124 9.34653 13.7116 9.34653H12.6544H12.6534ZM16.0986 19.0965C14.8023 19.0965 13.8133 18.0337 13.8133 14.2582C13.8133 10.4826 14.8023 9.45698 16.0986 9.45698H17.3267C17.3614 7.40464 17.4295 5.35118 17.4977 3.26278C17.5323 1.17325 18.9303 0.11045 20.772 0.11045C22.6136 0.11045 23.9445 1.17325 24.0463 3.26278C24.4217 11.6198 24.2854 19.464 24.0463 27.8942C23.9781 29.9837 22.5455 31.0465 20.772 31.0465C18.9985 31.0465 17.5313 29.9837 17.4977 27.8942C17.3949 24.9256 17.3267 21.993 17.2932 19.0977H16.0997L16.0986 19.0965ZM28.6169 31.4489C26.8088 31.4489 25.3426 30.3861 25.2744 28.2966C25.0353 19.9024 25.0353 11.5454 25.2744 3.15233C25.3426 1.0628 26.8098 0 28.6169 0C30.4239 0 31.8576 1.0628 31.9258 3.15233C32.2331 11.5465 32.2331 19.9035 31.9258 28.2966C31.8576 30.3861 30.4596 31.4489 28.6169 31.4489Z" fill="#FF7A00"/>
<path d="M56.1434 27.1245V29.1769C56.1088 30.8629 53.7218 31.8164 50.6174 31.8164C47.513 31.8164 45.1595 30.8629 45.1259 29.1769L45.0913 27.1245H37.7583C35.7121 27.1245 34.075 25.3652 34.075 23.1664C34.075 20.9675 35.7121 19.2082 37.7583 19.2082H63.5111C65.5237 19.2082 67.1944 20.9675 67.1944 23.1664C67.1944 25.3652 65.5226 27.1245 63.5111 27.1245H56.1434ZM57.3033 7.88034C58.5996 8.72336 60.5095 9.27336 62.6249 9.7129C64.9101 10.1896 66.2746 12.1687 65.6265 14.735C64.9783 17.3373 63.0339 17.7769 60.6122 17.521C57.5079 17.1908 53.8927 16.2013 51.232 14.7722C52.0164 14.1129 52.8691 13.2326 53.5519 12.0233C49.9021 15.4687 45.8769 16.935 40.6246 17.8152C38.203 18.2187 36.2585 17.778 35.6104 15.1757C34.9622 12.6094 36.3267 10.4838 38.612 10.0071C40.7945 9.53032 43.0462 8.87101 44.4789 7.88147H40.1128C37.6911 7.88147 36.3949 6.30587 36.3949 4.14308C36.3949 1.98029 37.7247 0.514016 40.1128 0.367501C46.6614 -0.0720444 54.5755 -0.0720444 61.1576 0.367501C63.5111 0.514016 64.8409 2.01748 64.8409 4.14308C64.8409 6.41519 63.5111 7.88147 61.1576 7.88147H57.3033V7.88034Z" fill="#FF7A00"/>
<path d="M81.1797 8.35706C82.5096 8.35706 83.8405 8.31987 85.0004 8.17335C87.4567 7.84313 88.7519 9.16289 89.0257 11.692C89.3329 14.5513 88.173 16.4571 85.5122 16.8966C81.658 17.5931 76.8483 17.5931 73.0286 16.9338C70.8115 16.5675 68.6971 15.8338 68.4234 13.635C67.9116 9.8594 67.9116 7.11055 68.4234 3.33497C68.6961 1.13612 70.6405 0.0361328 73.1985 0.0361328C75.7565 0.0361328 77.7009 1.17219 77.94 3.33497C78.2473 6.12101 78.2473 8.7966 77.94 11.2885C78.4854 10.3722 78.7245 9.38266 78.8273 8.35593H81.1808L81.1797 8.35706ZM94.4478 18.4734C97.5176 18.4734 98.8821 20.3431 99.1894 23.0187C99.3603 24.4117 99.3603 25.7315 99.1894 27.0873C98.8821 29.7629 97.5176 31.4129 94.4478 31.6327C87.8311 32.0722 82.2369 32.0722 75.6201 31.6327C72.5504 31.4129 71.1859 29.7629 70.8786 27.0873C70.7077 25.7315 70.7077 24.4117 70.8786 23.0187C71.1859 20.3431 72.5504 18.4734 75.6201 18.4734H94.4478ZM82.7141 23.7885C83.6349 24.6687 83.6349 25.7315 82.7141 26.6478C84.0439 25.621 86.0912 25.585 87.421 26.6106C86.5002 25.6943 86.5002 24.6676 87.421 23.7885C86.0912 24.8152 84.0439 24.8152 82.7141 23.7885ZM98.5748 16.0175C97.8585 17.1908 96.2895 17.7768 94.3797 17.7768C91.8217 17.7768 89.8773 16.714 89.7409 14.5885C89.4336 10.9233 89.4336 6.96404 89.7409 3.18846C89.8773 1.09893 91.8217 0.0361328 94.3797 0.0361328C96.2895 0.0361328 97.8585 0.622193 98.5748 1.79544H99.2911C100.689 1.79544 101.781 2.85824 101.781 5.13147C101.781 7.80706 100.894 8.50357 99.4956 8.50357H99.2911V9.30941H99.4956C100.894 9.30941 101.781 10.0059 101.781 12.6454C101.781 14.9547 100.689 16.0175 99.2911 16.0175H98.5748Z" fill="#FF7A00"/>
<path d="M115.289 8.35706C116.619 8.35706 117.95 8.31987 119.11 8.17335C121.566 7.84313 122.862 9.16289 123.135 11.692C123.443 14.5513 122.283 16.4571 119.622 16.8966C115.768 17.5931 110.958 17.5931 107.138 16.9338C104.921 16.5675 102.807 15.8338 102.533 13.635C102.021 9.8594 102.021 7.11055 102.533 3.33497C102.806 1.13612 104.75 0.0361328 107.308 0.0361328C109.866 0.0361328 111.811 1.17219 112.05 3.33497C112.357 6.12101 112.357 8.7966 112.05 11.2885C112.595 10.3722 112.834 9.38266 112.937 8.35593H115.29L115.289 8.35706ZM128.557 18.4734C131.627 18.4734 132.992 20.3431 133.299 23.0187C133.47 24.4117 133.47 25.7315 133.299 27.0873C132.992 29.7629 131.627 31.4129 128.557 31.6327C121.941 32.0722 116.347 32.0722 109.73 31.6327C106.66 31.4129 105.296 29.7629 104.988 27.0873C104.817 25.7315 104.817 24.4117 104.988 23.0187C105.296 20.3431 106.66 18.4734 109.73 18.4734H128.557ZM116.824 23.7885C117.745 24.6687 117.745 25.7315 116.824 26.6478C118.154 25.621 120.201 25.585 121.531 26.6106C120.61 25.6943 120.61 24.6676 121.531 23.7885C120.201 24.8152 118.154 24.8152 116.824 23.7885ZM132.684 16.0175C131.968 17.1908 130.399 17.7768 128.489 17.7768C125.931 17.7768 123.987 16.714 123.851 14.5885C123.543 10.9233 123.543 6.96404 123.851 3.18846C123.987 1.09893 125.931 0.0361328 128.489 0.0361328C130.399 0.0361328 131.968 0.622193 132.684 1.79544H133.401C134.799 1.79544 135.891 2.85824 135.891 5.13147C135.891 7.80706 135.003 8.50357 133.605 8.50357H133.401V9.30941H133.605C135.003 9.30941 135.891 10.0059 135.891 12.6454C135.891 14.9547 134.799 16.0175 133.401 16.0175H132.684Z" fill="#FF7A00"/>
<path d="M145.749 8.68731C145.613 7.9908 145.237 7.36754 144.725 6.74429C145.339 8.43034 145.339 10.4466 144.725 12.1327C145.237 11.4733 145.613 10.9234 145.749 10.1896H151.445C152.4 10.1896 153.321 10.1164 154.139 10.0059C156.084 9.74898 157.482 10.8862 157.721 13.342C157.993 15.871 157.039 17.8501 154.276 18.2908C149.773 19.0606 145.271 19.0606 141.724 18.6571C138.313 18.2175 136.846 16.2385 136.573 13.8187C136.13 10.0803 136.13 8.79663 136.573 5.09544C136.846 2.67681 138.313 0.587281 141.724 0.220993C144.93 -0.0720368 148.443 -0.0720368 151.684 0.220993C155.367 0.660538 156.494 2.12682 156.494 4.54657C156.494 6.96632 155.368 8.68843 152.912 8.68843H145.749V8.68731ZM164.952 23.9722C166.998 23.9722 168.295 25.6954 168.295 27.7838C168.295 29.8723 166.998 31.3025 163.383 31.5955C157.277 32.1083 150.285 32.1455 145.408 31.6327C141.758 31.2664 139.405 30.7164 139.132 28.1501C138.928 26.3908 138.961 23.7513 139.2 22.3222C139.541 20.4525 141.929 20.0129 144.316 20.0129C146.397 20.0129 149.16 20.4525 149.432 22.3222C149.603 23.7152 149.637 25.035 149.5 26.5373C150.046 25.7304 150.182 24.8513 150.182 23.9711H164.951L164.952 23.9722ZM167.51 14.6257C167.476 16.2757 167.442 17.7047 167.374 18.6943C167.135 21.5536 165.361 22.6524 162.974 22.6524C160.587 22.6524 158.779 21.5525 158.575 18.6943C158.37 15.5059 158.37 7.25822 158.575 4.03264C158.779 1.13728 160.587 0.0372859 162.974 0.0372859C165.361 0.0372859 167.136 1.13728 167.374 4.03264C167.374 4.32567 167.408 4.65589 167.408 4.98611H167.716C169.114 4.98611 170.001 6.01284 170.001 9.7873C170.001 13.5617 169.114 14.6257 167.716 14.6257H167.511H167.51Z" fill="#FF7A00"/>
</g>
<defs>
<clipPath id="clip0_31175_10925">
<rect width="170" height="32" fill="white"/>
</clipPath>
</defs>
</svg>
