<svg width="16" height="16" viewBox="0 0 16 16" fill="none" xmlns="http://www.w3.org/2000/svg">
<path d="M7.99984 12.8999C9.35539 11.6555 10.3609 10.5249 11.0165 9.50825C11.6721 8.49159 11.9998 7.58881 11.9998 6.79992C11.9998 5.58881 11.6137 4.59714 10.8415 3.82492C10.0693 3.0527 9.12206 2.66659 7.99984 2.66659C6.87761 2.66659 5.93039 3.0527 5.15817 3.82492C4.38595 4.59714 3.99984 5.58881 3.99984 6.79992C3.99984 7.58881 4.32762 8.49159 4.98317 9.50825C5.63873 10.5249 6.64428 11.6555 7.99984 12.8999ZM7.99984 14.2166C7.84428 14.2166 7.68873 14.1888 7.53317 14.1333C7.37762 14.0777 7.23873 13.9944 7.1165 13.8833C6.39428 13.2166 5.75539 12.5666 5.19984 11.9333C4.64428 11.2999 4.18039 10.686 3.80817 10.0916C3.43595 9.49714 3.15262 8.92492 2.95817 8.37492C2.76373 7.82492 2.6665 7.29992 2.6665 6.79992C2.6665 5.13325 3.20262 3.80547 4.27484 2.81659C5.34706 1.8277 6.58873 1.33325 7.99984 1.33325C9.41095 1.33325 10.6526 1.8277 11.7248 2.81659C12.7971 3.80547 13.3332 5.13325 13.3332 6.79992C13.3332 7.29992 13.2359 7.82492 13.0415 8.37492C12.8471 8.92492 12.5637 9.49714 12.1915 10.0916C11.8193 10.686 11.3554 11.2999 10.7998 11.9333C10.2443 12.5666 9.60539 13.2166 8.88317 13.8833C8.76095 13.9944 8.62206 14.0777 8.4665 14.1333C8.31095 14.1888 8.15539 14.2166 7.99984 14.2166ZM7.99984 7.99992C8.3665 7.99992 8.68039 7.86936 8.9415 7.60825C9.20262 7.34714 9.33317 7.03325 9.33317 6.66659C9.33317 6.29992 9.20262 5.98603 8.9415 5.72492C8.68039 5.46381 8.3665 5.33325 7.99984 5.33325C7.63317 5.33325 7.31928 5.46381 7.05817 5.72492C6.79706 5.98603 6.6665 6.29992 6.6665 6.66659C6.6665 7.03325 6.79706 7.34714 7.05817 7.60825C7.31928 7.86936 7.63317 7.99992 7.99984 7.99992Z" fill="#6C6E7E"/>
</svg>
