<svg width="100" height="20" viewBox="0 0 100 20" fill="none" xmlns="http://www.w3.org/2000/svg">
<g clip-path="url(#clip0_31113_2732)">
<path d="M7.44336 6.0495V6.9636C7.44336 9.48841 8.10533 11.8386 9.26947 13.7973C9.97154 15.0158 9.97154 16.648 8.80801 17.4971C7.54392 18.4112 6.07933 18.0847 5.25696 16.583C5.59813 15.8429 5.77889 15.1249 5.83873 14.1894C5.45747 15.234 4.996 16.1702 4.49444 17.0187C3.65171 18.3898 2.10692 18.4112 0.963133 17.5848C-0.200397 16.7363 -0.260856 15.2996 0.522028 13.9719C1.66582 11.9911 2.34814 9.48841 2.34814 6.96427V6.05017H1.58562C0.721913 6.0495 0.0198473 4.91792 0.0198473 3.37279C0.0198473 1.82765 0.721913 0.826559 1.585 0.717483C3.67145 0.43442 5.99913 0.43442 8.06585 0.717483C8.94867 0.826559 9.65074 1.84906 9.65074 3.37279C9.65074 4.89651 8.94867 6.0495 8.06585 6.0495H7.44398H7.44336ZM9.46998 11.8386C8.70745 11.8386 8.12569 11.2075 8.12569 8.96578C8.12569 6.72403 8.70745 6.11508 9.46998 6.11508H10.1924C10.2128 4.89651 10.2529 3.67726 10.293 2.43727C10.3133 1.19662 11.1357 0.56558 12.219 0.56558C13.3023 0.56558 14.0852 1.19662 14.1451 2.43727C14.3659 7.39924 14.2857 12.0567 14.1451 17.0622C14.105 18.3028 13.2622 18.9339 12.219 18.9339C11.1758 18.9339 10.3127 18.3028 10.293 17.0622C10.2325 15.2996 10.1924 13.5584 10.1727 11.8392H9.47059L9.46998 11.8386ZM16.8337 19.1728C15.7701 19.1728 14.9076 18.5417 14.8675 17.3011C14.7268 12.317 14.7268 7.35507 14.8675 2.37169C14.9076 1.13104 15.7707 0.5 16.8337 0.5C17.8966 0.5 18.74 1.13104 18.7801 2.37169C18.9608 7.35574 18.9608 12.3177 18.7801 17.3011C18.74 18.5417 17.9176 19.1728 16.8337 19.1728Z" fill="#FF7A00"/>
<path d="M33.0254 16.6052V17.8238C33.005 18.8248 31.6009 19.391 29.7748 19.391C27.9487 19.391 26.5643 18.8248 26.5445 17.8238L26.5242 16.6052H22.2106C21.007 16.6052 20.0439 15.5606 20.0439 14.255C20.0439 12.9494 21.007 11.9049 22.2106 11.9049H37.3593C38.5432 11.9049 39.526 12.9494 39.526 14.255C39.526 15.5606 38.5426 16.6052 37.3593 16.6052H33.0254ZM33.7077 5.17894C34.4702 5.67949 35.5937 6.00605 36.838 6.26703C38.1823 6.55009 38.9849 7.72517 38.6037 9.24889C38.2224 10.794 37.0786 11.055 35.6541 10.9031C33.828 10.707 31.7014 10.1195 30.1363 9.27097C30.5978 8.8795 31.0993 8.35687 31.5009 7.63885C29.354 9.68453 26.9863 10.5551 23.8967 11.0778C22.4722 11.3173 21.3284 11.0557 20.9471 9.51054C20.5659 7.98682 21.3685 6.72475 22.7128 6.44168C23.9966 6.15862 25.3212 5.76715 26.1639 5.17961H23.5956C22.1711 5.17961 21.4086 4.2441 21.4086 2.95995C21.4086 1.67579 22.1909 0.805189 23.5956 0.718196C27.4477 0.457216 32.1031 0.457216 35.9749 0.718196C37.3593 0.805189 38.1416 1.69787 38.1416 2.95995C38.1416 4.30901 37.3593 5.17961 35.9749 5.17961H33.7077V5.17894Z" fill="#FF7A00"/>
<path d="M47.753 5.46203C48.5352 5.46203 49.3181 5.43995 50.0004 5.35296C51.4453 5.15689 52.2072 5.9405 52.3682 7.44213C52.549 9.13984 51.8666 10.2714 50.3015 10.5324C48.0343 10.946 45.205 10.946 42.9582 10.5545C41.654 10.337 40.4103 9.90137 40.2492 8.5958C39.9482 6.35405 39.9482 4.72192 40.2492 2.48017C40.4096 1.1746 41.5534 0.521484 43.0581 0.521484C44.5628 0.521484 45.7066 1.19602 45.8473 2.48017C46.028 4.13438 46.028 5.72301 45.8473 7.20257C46.1681 6.65853 46.3087 6.07099 46.3692 5.46136H47.7536L47.753 5.46203ZM55.5577 11.4686C57.3635 11.4686 58.1661 12.5788 58.3469 14.1674C58.4474 14.9945 58.4474 15.7781 58.3469 16.5831C58.1661 18.1718 57.3635 19.1514 55.5577 19.2819C51.6655 19.5429 48.3748 19.5429 44.4826 19.2819C42.6769 19.1514 41.8742 18.1718 41.6935 16.5831C41.5929 15.7781 41.5929 14.9945 41.6935 14.1674C41.8742 12.5788 42.6769 11.4686 44.4826 11.4686H55.5577ZM48.6555 14.6244C49.1972 15.1471 49.1972 15.7781 48.6555 16.3221C49.4378 15.7125 50.642 15.6911 51.4243 16.3001C50.8826 15.756 50.8826 15.1464 51.4243 14.6244C50.642 15.2341 49.4378 15.2341 48.6555 14.6244ZM57.9853 10.0104C57.564 10.7071 56.6411 11.055 55.5176 11.055C54.0129 11.055 52.8691 10.424 52.7889 9.16192C52.6082 6.98575 52.6082 4.63493 52.7889 2.39318C52.8691 1.15252 54.0129 0.521484 55.5176 0.521484C56.6411 0.521484 57.564 0.869458 57.9853 1.56607H58.4067C59.2291 1.56607 59.8713 2.19711 59.8713 3.54684C59.8713 5.13547 59.3494 5.54903 58.527 5.54903H58.4067V6.02749H58.527C59.3494 6.02749 59.8713 6.44104 59.8713 8.00826C59.8713 9.37941 59.2291 10.0104 58.4067 10.0104H57.9853Z" fill="#FF7A00"/>
<path d="M67.8174 5.46203C68.5997 5.46203 69.3826 5.43995 70.0649 5.35296C71.5097 5.15689 72.2716 5.9405 72.4327 7.44213C72.6134 9.13984 71.9311 10.2714 70.3659 10.5324C68.0987 10.946 65.2695 10.946 63.0226 10.5545C61.7184 10.337 60.4747 9.90137 60.3137 8.5958C60.0126 6.35405 60.0126 4.72192 60.3137 2.48017C60.4741 1.1746 61.6179 0.521484 63.1226 0.521484C64.6273 0.521484 65.771 1.19602 65.9117 2.48017C66.0925 4.13438 66.0925 5.72301 65.9117 7.20257C66.2325 6.65853 66.3732 6.07099 66.4336 5.46136H67.818L67.8174 5.46203ZM75.6222 11.4686C77.4279 11.4686 78.2306 12.5788 78.4113 14.1674C78.5119 14.9945 78.5119 15.7781 78.4113 16.5831C78.2306 18.1718 77.4279 19.1514 75.6222 19.2819C71.73 19.5429 68.4393 19.5429 64.5471 19.2819C62.7413 19.1514 61.9387 18.1718 61.7579 16.5831C61.6574 15.7781 61.6574 14.9945 61.7579 14.1674C61.9387 12.5788 62.7413 11.4686 64.5471 11.4686H75.6222ZM68.72 14.6244C69.2616 15.1471 69.2616 15.7781 68.72 16.3221C69.5022 15.7125 70.7065 15.6911 71.4888 16.3001C70.9471 15.756 70.9471 15.1464 71.4888 14.6244C70.7065 15.2341 69.5022 15.2341 68.72 14.6244ZM78.0498 10.0104C77.6284 10.7071 76.7055 11.055 75.5821 11.055C74.0774 11.055 72.9336 10.424 72.8534 9.16192C72.6726 6.98575 72.6726 4.63493 72.8534 2.39318C72.9336 1.15252 74.0774 0.521484 75.5821 0.521484C76.7055 0.521484 77.6284 0.869458 78.0498 1.56607H78.4712C79.2935 1.56607 79.9358 2.19711 79.9358 3.54684C79.9358 5.13547 79.4138 5.54903 78.5915 5.54903H78.4712V6.02749H78.5915C79.4138 6.02749 79.9358 6.44104 79.9358 8.00826C79.9358 9.37941 79.2935 10.0104 78.4712 10.0104H78.0498Z" fill="#FF7A00"/>
<path d="M85.7348 5.6581C85.6546 5.24454 85.4338 4.87449 85.1327 4.50443C85.4936 5.50552 85.4936 6.70268 85.1327 7.70378C85.4338 7.31231 85.6546 6.98575 85.7348 6.55011H89.0854C89.6474 6.55011 90.1891 6.50661 90.6703 6.44104C91.8141 6.28846 92.6364 6.96366 92.7771 8.42181C92.9375 9.92344 92.3761 11.0985 90.7505 11.3602C88.102 11.8172 85.4535 11.8172 83.3671 11.5777C81.3608 11.3167 80.4977 10.1416 80.3373 8.70487C80.0764 6.4852 80.0764 5.72301 80.3373 3.52542C80.4977 2.08936 81.3608 0.848706 83.3671 0.631222C85.253 0.457236 87.3197 0.457236 89.2261 0.631222C91.3927 0.892202 92.0553 1.7628 92.0553 3.19953C92.0553 4.63626 91.3933 5.65876 89.9485 5.65876H85.7348V5.6581ZM97.0308 14.7335C98.2345 14.7335 98.997 15.7567 98.997 16.9967C98.997 18.2367 98.2345 19.0858 96.1079 19.2598C92.5161 19.5643 88.4031 19.5864 85.5343 19.2819C83.3874 19.0644 82.003 18.7379 81.8426 17.2142C81.7223 16.1696 81.7421 14.6023 81.8827 13.7538C82.0832 12.6437 83.488 12.3827 84.8921 12.3827C86.1161 12.3827 87.7411 12.6437 87.9015 13.7538C88.0021 14.5809 88.0218 15.3645 87.9416 16.2566C88.2624 15.7774 88.3426 15.2555 88.3426 14.7328H97.0302L97.0308 14.7335ZM98.5355 9.184C98.5152 10.1637 98.4954 11.0122 98.4553 11.5997C98.3147 13.2974 97.2714 13.9499 95.8673 13.9499C94.4632 13.9499 93.3996 13.2968 93.2793 11.5997C93.159 9.70663 93.159 4.80958 93.2793 2.89439C93.3996 1.17526 94.4632 0.522146 95.8673 0.522146C97.2714 0.522146 98.3153 1.17526 98.4553 2.89439C98.4553 3.06837 98.4757 3.26444 98.4757 3.46051H98.6564C99.4788 3.46051 100.001 4.07013 100.001 6.31121C100.001 8.5523 99.4788 9.184 98.6564 9.184H98.5361H98.5355Z" fill="#FF7A00"/>
</g>
<defs>
<clipPath id="clip0_31113_2732">
<rect width="100" height="19" fill="white" transform="translate(0 0.5)"/>
</clipPath>
</defs>
</svg>
