<svg width="73" height="82" viewBox="0 0 73 82" fill="none" xmlns="http://www.w3.org/2000/svg">
<path d="M50.5469 0.547852L32.0346 30.589L31.6245 22.7381C31.1802 14.2429 35.5384 6.97024 42.9783 3.78706L50.5469 0.549854V0.547852Z" fill="#08C173"/>
<path d="M35.263 21.7678L33.3413 58.2334L29.2183 51.3568C24.7555 43.9161 25.1113 35.1508 30.145 28.5163L35.263 21.7678Z" fill="#08C173"/>
<path d="M64.6186 14.6732L31.8799 29.8348L35.9788 23.0223C40.4134 15.6496 48.2352 11.9122 56.3566 13.2807L64.6186 14.6732Z" fill="#019954"/>
<path d="M37.7959 25.2751L0.491943 30.371L6.83425 24.2627C13.6972 17.6523 22.6488 16.3058 30.157 20.7514L37.7939 25.2751H37.7959Z" fill="#00C172"/>
<path d="M36.3746 24.5647L10.8667 48.3915L12.5111 40.7507C14.2901 32.4836 20.347 26.6815 28.2935 25.6331L36.3746 24.5647Z" fill="#019954"/>
<path d="M37.1526 32.0456L40.4192 28.7024L54.1572 44.2362C56.3463 46.7111 58.3566 49.3361 60.1759 52.0931L64.4496 58.5715C67.9776 63.9195 70.7537 69.7216 72.7037 75.8179L67.0288 81.2819C67.0288 81.2819 60.4472 67.7389 58.1234 63.6554L52.9611 54.584C51.6926 52.3552 50.3036 50.1984 48.7979 48.1216L37.1546 32.0476L37.1526 32.0456Z" fill="#BF8143"/>
<path d="M40.4254 32.4918C42.9057 32.4918 44.9163 30.4907 44.9163 28.0222C44.9163 25.5536 42.9057 23.5525 40.4254 23.5525C37.9452 23.5525 35.9346 25.5536 35.9346 28.0222C35.9346 30.4907 37.9452 32.4918 40.4254 32.4918Z" fill="#F8DC4A"/>
<path d="M35.9145 36.0131C38.3947 36.0131 40.4053 34.0119 40.4053 31.5434C40.4053 29.0749 38.3947 27.0737 35.9145 27.0737C33.4342 27.0737 31.4236 29.0749 31.4236 31.5434C31.4236 34.0119 33.4342 36.0131 35.9145 36.0131Z" fill="#FAB650"/>
<path d="M36.1837 31.2172C38.664 31.2172 40.6746 29.216 40.6746 26.7475C40.6746 24.279 38.664 22.2778 36.1837 22.2778C33.7035 22.2778 31.6929 24.279 31.6929 26.7475C31.6929 29.216 33.7035 31.2172 36.1837 31.2172Z" fill="#FBF154"/>
</svg>
