<svg width="67" height="83" viewBox="0 0 67 83" fill="none" xmlns="http://www.w3.org/2000/svg">
<path d="M10.5549 0.182617L35.5744 25.1199L34.1411 17.389C32.5892 9.0239 26.6529 2.95765 18.6723 1.58114L10.5549 0.182617Z" fill="#08C173"/>
<path d="M30.3738 17.2869L40.7547 52.3099L43.1609 44.669C45.7642 36.4 43.372 27.9568 36.9272 22.6669L30.3738 17.2869Z" fill="#08C173"/>
<path d="M0.167969 17.1749L35.5502 24.3496L29.9718 18.6715C23.937 12.5272 15.4578 10.7005 7.87723 13.9097L0.167969 17.1749Z" fill="#019954"/>
<path d="M28.7314 21.2824L66.2043 17.6131L58.6096 13.1394C50.3918 8.29761 41.3718 9.0579 35.1059 15.1182L28.7335 21.2824H28.7314Z" fill="#00C172"/>
<path d="M29.9456 20.2661L60.3182 37.5405L56.935 30.4899C53.2744 22.8611 46.0295 18.6175 38.0549 19.4358L29.9456 20.2661Z" fill="#019954"/>
<path d="M30.9368 27.7208L26.9807 25.2239L17.2451 43.5087C15.6932 46.4218 14.3503 49.4409 13.2266 52.542L10.5831 59.8327C8.4 65.851 7.05517 72.1353 6.58276 78.5157L13.3774 82.5172C13.3774 82.5172 16.6159 67.8237 17.9245 63.312L20.8273 53.2943C21.5409 50.8334 22.3873 48.4145 23.3662 46.0456L30.9388 27.7188L30.9368 27.7208Z" fill="#BF8143"/>
<path d="M26.8158 29.0333C29.2961 29.0333 31.3067 27.0322 31.3067 24.5637C31.3067 22.0951 29.2961 20.094 26.8158 20.094C24.3356 20.094 22.325 22.0951 22.325 24.5637C22.325 27.0322 24.3356 29.0333 26.8158 29.0333Z" fill="#F8DC4A"/>
<path d="M32.0243 31.4161C34.5046 31.4161 36.5152 29.415 36.5152 26.9465C36.5152 24.4779 34.5046 22.4768 32.0243 22.4768C29.5441 22.4768 27.5334 24.4779 27.5334 26.9465C27.5334 29.415 29.5441 31.4161 32.0243 31.4161Z" fill="#FAB650"/>
<path d="M30.6432 26.8126C33.1235 26.8126 35.1341 24.8115 35.1341 22.343C35.1341 19.8744 33.1235 17.8733 30.6432 17.8733C28.163 17.8733 26.1523 19.8744 26.1523 22.343C26.1523 24.8115 28.163 26.8126 30.6432 26.8126Z" fill="#FBF154"/>
</svg>
